<svg width="375" height="470" viewBox="0 0 375 470" fill="none" xmlns="http://www.w3.org/2000/svg">
<path d="M27.4182 188.648L176.477 213.731L28.6079 244.456" stroke="#A7EBFF" stroke-width="0.23" stroke-miterlimit="10"/>
<path d="M134.125 68.6129L176.478 213.731L278.617 102.318" stroke="#A7EBFF" stroke-width="0.23" stroke-miterlimit="10"/>
<path d="M287.853 315.896L176.479 213.731L322.812 251.671" stroke="#A7EBFF" stroke-width="0.23" stroke-miterlimit="10"/>
<path d="M135.582 359.272L176.477 213.731" stroke="#A7EBFF" stroke-width="0.23" stroke-miterlimit="10"/>
<g filter="url(#filter0_d_411_836)">
<path d="M176.48 168.117C151.288 168.117 130.865 188.539 130.865 213.731C130.865 238.923 151.288 259.346 176.48 259.346C201.672 259.346 222.094 238.923 222.094 213.731C222.094 188.539 201.672 168.117 176.48 168.117Z" fill="#08C2FA"/>
</g>
<g filter="url(#filter1_d_411_836)">
<path d="M133.183 206.699C129.307 230.575 145.521 253.073 169.397 256.948C193.273 260.824 215.771 244.61 219.647 220.734C223.522 196.858 207.308 174.36 183.432 170.485C159.556 166.609 137.058 182.823 133.183 206.699Z" fill="#A7EBFF"/>
</g>
<path d="M215.901 279.505C227.183 272.725 236.584 263.132 243.108 251.684L229.229 243.778C224.062 252.835 216.617 260.433 207.689 265.805L215.888 279.505L215.901 279.505ZM235.663 200.147L251.23 196.578C248.237 183.493 241.906 171.686 233.169 162.093L221.363 172.85C228.283 180.435 233.297 189.786 235.663 200.147ZM151.457 158.409C159.094 154.955 167.562 153.036 176.478 153.036C178.281 153.036 180.072 153.113 181.837 153.279L183.244 137.38C181.019 137.175 178.754 137.073 176.478 137.073C165.208 137.073 154.515 139.503 144.883 143.865L151.457 158.421L151.457 158.409ZM119.799 265.37L131.605 254.613C124.685 247.027 119.671 237.677 117.304 227.316L101.737 230.885C104.73 243.97 111.062 255.777 119.799 265.37ZM160.974 288.83L164.211 273.186C153.786 271.037 144.333 266.227 136.607 259.486L126.118 271.51C135.878 280.029 147.812 286.105 160.974 288.817L160.974 288.83ZM123.726 183.684C128.894 174.628 136.338 167.03 145.266 161.658L137.067 147.958C125.785 154.737 116.384 164.331 109.847 175.779L123.726 183.684ZM216.361 167.964L226.85 155.94C217.09 147.421 205.156 141.345 191.994 138.633L188.757 154.277C199.182 156.426 208.635 161.236 216.361 167.977L216.361 167.964ZM176.478 290.403C187.747 290.403 198.44 287.973 208.072 283.611L201.497 269.054C193.861 272.508 185.393 274.427 176.478 274.427C174.674 274.427 172.883 274.35 171.118 274.184L169.711 290.083C171.937 290.288 174.201 290.39 176.478 290.39L176.478 290.403Z" fill="#A7EBFF"/>
<path d="M226.071 235.95C230.049 227.06 231.508 217.313 230.459 207.784L233.209 207.477C234.296 217.492 232.761 227.725 228.591 237.063L226.071 235.937L226.071 235.95Z" fill="#08C2FA"/>
<path d="M187.762 266.867C197.279 264.872 206.361 260.292 213.895 253.142L215.801 255.15C207.896 262.659 198.353 267.468 188.338 269.566L187.762 266.854L187.762 266.867Z" fill="#08C2FA"/>
<path d="M146.984 262.62L148.417 260.254C155.311 264.411 162.935 266.918 170.699 267.737L170.405 270.487C162.231 269.617 154.224 266.995 146.984 262.62Z" fill="#08C2FA"/>
<path d="M137.082 253.129C137.082 253.129 136.967 253.014 136.916 252.963" stroke="#08C2FA" stroke-width="2.28" stroke-miterlimit="10"/>
<path d="M135.572 251.556C115.349 229.695 115.848 195.581 137.094 174.334C158.571 152.857 193.197 152.576 215.02 173.477" stroke="#08C2FA" stroke-width="2.28" stroke-miterlimit="10" stroke-dasharray="0.38 1.52"/>
<path d="M215.709 174.168C215.709 174.168 215.824 174.283 215.875 174.334" stroke="#08C2FA" stroke-width="2.28" stroke-miterlimit="10"/>
<path d="M190.358 150.542L190.947 147.843C199.146 149.634 207.077 152.959 214.266 157.82L212.731 160.11C205.836 155.454 198.225 152.269 190.358 150.542Z" fill="#08C2FA"/>
<path d="M136.47 159.406C145.143 153.011 155.005 148.956 165.2 147.229L165.66 149.954C155.888 151.604 146.422 155.492 138.107 161.619L136.483 159.394L136.47 159.406Z" fill="#08C2FA"/>
<path d="M110.554 199.495C112.153 192.012 115.044 184.746 119.214 178.056L121.555 179.514C117.564 185.936 114.801 192.907 113.253 200.083L110.554 199.507L110.554 199.495Z" fill="#08C2FA"/>
<path d="M112.419 222.634C113.685 231.857 116.934 240.875 122.191 248.959L119.876 250.456C114.402 242.026 111.012 232.65 109.682 223.018L112.419 222.634Z" fill="#08C2FA"/>
<path d="M223.217 166.992C223.217 166.992 223.332 167.107 223.383 167.158" stroke="#08C2FA" stroke-width="2.28" stroke-miterlimit="10"/>
<path d="M224.74 168.578C249.018 194.493 248.506 235.183 223.218 260.471C197.699 285.99 156.498 286.284 130.621 261.328" stroke="#08C2FA" stroke-width="2.28" stroke-miterlimit="10" stroke-dasharray="0.38 1.53"/>
<path d="M129.918 260.638C129.918 260.638 129.803 260.523 129.752 260.471" stroke="#08C2FA" stroke-width="2.28" stroke-miterlimit="10"/>
<path d="M167.093 294.919C169.805 295.238 172.555 295.417 175.344 295.443" stroke="#08C2FA" stroke-width="1.14" stroke-miterlimit="10"/>
<path d="M138.262 285.99C145.912 290.058 154.277 292.923 163.129 294.369" stroke="#08C2FA" stroke-width="1.14" stroke-miterlimit="10"/>
<path d="M250.799 247.757C251.938 245.275 252.961 242.717 253.844 240.069" stroke="#08C2FA" stroke-width="1.14" stroke-miterlimit="10"/>
<path d="M233.39 272.419C239.62 266.407 244.928 259.333 249.047 251.364" stroke="#08C2FA" stroke-width="1.14" stroke-miterlimit="10"/>
<path d="M231.805 153.573C229.809 151.719 227.673 149.966 225.435 148.303" stroke="#08C2FA" stroke-width="1.14" stroke-miterlimit="10"/>
<path d="M249.879 177.749C246.08 169.972 241.002 162.72 234.683 156.349" stroke="#08C2FA" stroke-width="1.14" stroke-miterlimit="10"/>
<path d="M136.363 142.522C133.984 143.852 131.656 145.323 129.379 146.948" stroke="#08C2FA" stroke-width="1.14" stroke-miterlimit="10"/>
<path d="M164.941 132.8C156.371 134.003 147.903 136.599 139.896 140.641" stroke="#08C2FA" stroke-width="1.14" stroke-miterlimit="10"/>
<path d="M96.3714 229.887C96.8958 232.561 97.5865 235.234 98.418 237.895" stroke="#08C2FA" stroke-width="1.14" stroke-miterlimit="10"/>
<path d="M95.9492 199.7C94.4526 208.219 94.299 217.07 95.6677 225.935" stroke="#08C2FA" stroke-width="1.14" stroke-miterlimit="10"/>
<path d="M217.619 137.111C244.89 151.783 263.437 180.589 263.437 213.731C263.437 233.737 256.671 252.182 245.312 266.867C240.068 273.646 233.838 279.633 226.854 284.621" stroke="#A7EBFF" stroke-width="0.23" stroke-miterlimit="10"/>
<path d="M216.455 137.111C216.455 136.459 216.979 135.934 217.632 135.934C218.284 135.934 218.809 136.459 218.809 137.111C218.809 137.763 218.284 138.288 217.632 138.288C216.979 138.288 216.455 137.763 216.455 137.111Z" fill="#A7EBFF"/>
<path d="M227.633 285.184L226.443 283.534L225.407 285.376L227.633 285.184Z" fill="#A7EBFF"/>
<path d="M176.48 300.687C152.995 300.687 131.685 291.375 116.041 276.256C99.6936 260.446 89.5245 238.278 89.5245 213.744" stroke="#A7EBFF" stroke-width="0.23" stroke-miterlimit="10"/>
<path d="M175.636 300.688C175.636 300.227 176.019 299.843 176.48 299.843C176.94 299.843 177.324 300.227 177.324 300.688C177.324 301.148 176.94 301.532 176.48 301.532C176.019 301.532 175.636 301.148 175.636 300.688Z" fill="#A7EBFF"/>
<path d="M90.3828 214.691L89.5387 212.823L88.5281 214.691L90.3828 214.691Z" fill="#A7EBFF"/>
<path d="M91.0711 197.371C98.7204 157.168 134.05 126.776 176.492 126.776" stroke="#A7EBFF" stroke-width="0.23" stroke-miterlimit="10"/>
<path d="M90.1503 197.371C90.1503 196.86 90.5596 196.45 91.0712 196.45C91.5829 196.45 91.9922 196.86 91.9922 197.371C91.9922 197.883 91.5829 198.292 91.0712 198.292C90.5596 198.292 90.1503 197.883 90.1503 197.371Z" fill="#A7EBFF"/>
<path d="M176.48 127.505L177.785 126.776L176.48 126.123L176.48 127.505Z" fill="#A7EBFF"/>
<path d="M307.259 213.731L312.785 213.731C312.785 188.929 306.121 165.661 294.493 145.604L289.722 148.354C300.864 167.606 307.259 189.927 307.259 213.719L307.259 213.731ZM63.2632 148.355C74.7627 128.541 91.302 111.989 111.129 100.515L108.366 95.7306C87.6948 107.691 70.4648 124.933 58.492 145.604L63.276 148.355L63.2632 148.355ZM58.4793 281.858L63.2632 279.095C52.0963 259.844 45.7134 237.523 45.7134 213.731L40.1875 213.731C40.1875 238.534 46.8519 261.814 58.4793 281.858ZM176.493 350.024L176.493 344.498C152.701 344.498 130.367 338.115 111.129 326.948L108.366 331.732C128.423 343.359 151.69 350.024 176.493 350.024ZM241.857 100.515L244.62 95.7306C224.563 84.1032 201.295 77.4517 176.493 77.4517L176.493 82.9776C200.285 82.9776 222.619 89.3733 241.857 100.527L241.857 100.515ZM244.62 331.745C265.278 319.772 282.521 302.529 294.494 281.871L289.71 279.108C278.223 298.922 261.684 315.474 241.857 326.961L244.62 331.745Z" fill="#08C2FA"/>
<path d="M285.448 185.795L289.887 184.631C284.834 165.188 274.754 146.781 259.648 131.495C244.541 116.21 226.262 105.925 206.87 100.655L205.655 105.094C224.279 110.172 241.855 120.047 256.373 134.744C270.891 149.442 280.574 167.107 285.435 185.795L285.448 185.795ZM65.8708 243.28C60.8693 224.028 60.9845 203.728 66.2034 184.541C71.2815 165.904 81.1564 148.342 95.8537 133.823L92.6175 130.549C77.3318 145.656 67.0475 163.947 61.7646 183.326C56.3411 203.306 56.2131 224.425 61.432 244.444L65.8708 243.28ZM205.579 328.79C225.009 323.725 243.428 313.645 258.714 298.538L255.478 295.264C240.793 309.782 223.115 319.465 204.427 324.326C185.163 329.34 164.876 329.212 145.689 323.993L144.474 328.432C164.441 333.868 185.56 333.996 205.591 328.79L205.579 328.79Z" stroke="#A7EBFF" stroke-width="0.23" stroke-miterlimit="10"/>
<path d="M138.526 315.308L139.818 311.854C121.961 305.177 106.995 294.125 95.6872 280.349L92.8475 282.703C104.552 296.952 120.042 308.401 138.526 315.308ZM69.5544 231.639L73.1871 231.025C70.2195 213.463 71.6778 194.915 78.3549 177.058L74.9011 175.766C67.9938 194.25 66.4717 213.45 69.5544 231.639ZM257.281 147.101L260.121 144.76C248.417 130.51 232.926 119.062 214.443 112.155L213.151 115.608C231.007 122.286 245.973 133.337 257.281 147.101ZM274.613 250.404L278.067 251.696C284.974 233.213 286.497 214.013 283.414 195.823L279.781 196.437C282.749 214 281.291 232.548 274.613 250.404ZM109.847 132.928C124.02 121.262 141.084 113.498 159.184 110.441L158.583 106.808C139.843 109.967 122.191 118.026 107.532 130.088L109.86 132.928L109.847 132.928ZM194.399 320.655C213.138 317.495 230.79 309.437 245.449 297.374L243.121 294.535C228.948 306.2 211.884 313.965 193.785 317.022L194.399 320.655Z" fill="#A7EBFF"/>
<path d="M224.704 297.259L223.323 294.867C209.533 302.862 193.531 307.441 176.48 307.441L176.48 310.204C194.03 310.204 210.506 305.484 224.704 297.259ZM129.638 132.595C143.427 124.601 159.429 120.022 176.48 120.022L176.48 117.259C158.931 117.259 142.455 121.979 128.257 130.204L129.625 132.583L129.638 132.595ZM257.616 166.889L260.008 165.508C251.54 150.887 239.325 138.671 224.704 130.204L223.323 132.595C237.534 140.833 249.391 152.678 257.616 166.889ZM82.7834 213.731C82.7833 196.68 87.3626 180.678 95.3572 166.889L92.9781 165.521C84.7404 179.706 80.0332 196.194 80.0332 213.744L82.7962 213.744L82.7834 213.731ZM128.27 297.246L129.638 294.867C115.427 286.63 103.582 274.785 95.3573 260.574L92.9653 261.955C101.433 276.576 113.649 288.791 128.27 297.259L128.27 297.246ZM260.008 261.955C268.246 247.769 272.953 231.294 272.953 213.731L270.19 213.731C270.19 230.782 265.611 246.784 257.616 260.573L259.996 261.942L260.008 261.955Z" fill="#08C2FA"/>
<path d="M69.6167 106.865C10.5966 165.885 10.5966 261.576 69.6167 320.596C128.637 379.616 224.327 379.616 283.348 320.596C342.368 261.576 342.368 165.885 283.347 106.865C224.327 47.8451 128.637 47.8451 69.6167 106.865Z" stroke="#A7EBFF" stroke-width="0.23" stroke-miterlimit="10"/>
<path d="M324.616 242.346C323.479 242.346 322.557 243.268 322.557 244.405C322.557 245.543 323.479 246.465 324.616 246.465C325.754 246.465 326.676 245.543 326.676 244.405C326.676 243.268 325.754 242.346 324.616 242.346Z" fill="#A7EBFF"/>
<path d="M287.839 313.837C286.702 313.837 285.78 314.759 285.78 315.896C285.78 317.034 286.702 317.956 287.839 317.956C288.976 317.956 289.898 317.034 289.898 315.896C289.898 314.759 288.976 313.837 287.839 313.837Z" fill="#A7EBFF"/>
<path d="M135.585 357.213C134.448 357.213 133.526 358.135 133.526 359.272C133.526 360.41 134.448 361.332 135.585 361.332C136.723 361.332 137.645 360.41 137.645 359.272C137.645 358.135 136.723 357.213 135.585 357.213Z" fill="#A7EBFF"/>
<path d="M61.5109 393.297C60.3735 393.297 59.4515 394.219 59.4515 395.357C59.4515 396.494 60.3735 397.416 61.5109 397.416C62.6483 397.416 63.5703 396.494 63.5703 395.357C63.5703 394.219 62.6483 393.297 61.5109 393.297Z" stroke="#A7EBFF" stroke-width="0.57" stroke-miterlimit="10"/>
<path d="M188.3 376.502C187.163 376.502 186.241 377.424 186.241 378.562C186.241 379.699 187.163 380.621 188.3 380.621C189.437 380.621 190.359 379.699 190.359 378.562C190.359 377.424 189.437 376.502 188.3 376.502Z" stroke="#A7EBFF" stroke-width="0.57" stroke-miterlimit="10"/>
<path d="M358.46 399.795C357.323 399.795 356.401 400.717 356.401 401.855C356.401 402.992 357.323 403.914 358.46 403.914C359.598 403.914 360.52 402.992 360.52 401.855C360.52 400.717 359.598 399.795 358.46 399.795Z" stroke="#A7EBFF" stroke-width="0.57" stroke-miterlimit="10"/>
<path d="M256.542 48.4025C255.405 48.4025 254.483 49.3245 254.483 50.4619C254.483 51.5992 255.405 52.5213 256.542 52.5213C257.68 52.5213 258.602 51.5992 258.602 50.4619C258.602 49.3245 257.68 48.4025 256.542 48.4025Z" stroke="#A7EBFF" stroke-width="0.57" stroke-miterlimit="10"/>
<path d="M29.6867 299.114C28.5493 299.114 27.6273 300.036 27.6273 301.173C27.6273 302.311 28.5493 303.233 29.6867 303.233C30.8241 303.233 31.7461 302.311 31.7461 301.173C31.7461 300.036 30.8241 299.114 29.6867 299.114Z" stroke="#A7EBFF" stroke-width="0.57" stroke-miterlimit="10"/>
<path d="M327.624 351.149C324.346 351.149 321.688 353.807 321.688 357.085C321.688 360.363 324.346 363.02 327.624 363.02C330.901 363.02 333.559 360.363 333.559 357.085C333.559 353.807 330.901 351.149 327.624 351.149Z" stroke="#A7EBFF" stroke-width="0.57" stroke-miterlimit="10"/>
<path d="M288.903 86.9941C288.903 83.7195 291.564 81.0589 294.838 81.0589C298.113 81.0589 300.773 83.7195 300.773 86.9941C300.773 90.2687 298.113 92.9293 294.838 92.9293C291.564 92.9293 288.903 90.2687 288.903 86.9941Z" stroke="#A7EBFF" stroke-width="0.23" stroke-miterlimit="10"/>
<path d="M99.0656 348.809C97.9282 348.809 97.0062 349.731 97.0062 350.868C97.0062 352.006 97.9282 352.928 99.0656 352.928C100.203 352.928 101.125 352.006 101.125 350.868C101.125 349.731 100.203 348.809 99.0656 348.809Z" stroke="#A7EBFF" stroke-width="0.57" stroke-miterlimit="10"/>
<path d="M28.6125 242.397C27.4751 242.397 26.5531 243.319 26.5531 244.456C26.5531 245.594 27.4751 246.516 28.6125 246.516C29.7499 246.516 30.6719 245.594 30.6719 244.456C30.6719 243.319 29.7499 242.397 28.6125 242.397Z" fill="#A7EBFF"/>
<path d="M27.4211 186.588C26.2837 186.588 25.3617 187.51 25.3617 188.648C25.3617 189.785 26.2837 190.707 27.4211 190.707C28.5585 190.707 29.4805 189.785 29.4805 188.648C29.4805 187.51 28.5585 186.588 27.4211 186.588Z" fill="#A7EBFF"/>
<path d="M134.124 66.5534C132.987 66.5534 132.065 67.4754 132.065 68.6128C132.065 69.7502 132.987 70.6722 134.124 70.6722C135.262 70.6722 136.184 69.7502 136.184 68.6128C136.184 67.4754 135.262 66.5534 134.124 66.5534Z" fill="#A7EBFF"/>
<path d="M278.616 100.655C277.479 100.655 276.557 101.577 276.557 102.715C276.557 103.852 277.479 104.774 278.616 104.774C279.754 104.774 280.676 103.852 280.676 102.715C280.676 101.577 279.754 100.655 278.616 100.655Z" fill="#A7EBFF"/>
<path d="M135.586 359.272L116.463 378.383L78.3188 378.383L62.9051 393.796" stroke="#A7EBFF" stroke-width="0.57" stroke-miterlimit="10"/>
<path d="M115.234 378.344C115.234 377.692 115.758 377.155 116.424 377.155C117.089 377.155 117.613 377.679 117.613 378.344C117.613 379.009 117.089 379.534 116.424 379.534C115.758 379.534 115.234 379.009 115.234 378.344Z" fill="#08C2FA"/>
<path d="M77.1521 378.344C77.1521 377.692 77.6766 377.155 78.3417 377.155C79.0069 377.155 79.5312 377.679 79.5312 378.344C79.5312 379.009 79.0069 379.534 78.3417 379.534C77.6766 379.534 77.1521 379.009 77.1521 378.344Z" fill="#08C2FA"/>
<path d="M97.8242 352.557L88.6655 361.715L19.1955 361.715L1.15947 379.751L-41.3848 379.751L-73.0307 348.105" stroke="#A7EBFF" stroke-width="0.57" stroke-miterlimit="10"/>
<path d="M87.4761 361.715C87.4761 361.063 88.0006 360.526 88.6658 360.526C89.331 360.526 89.8555 361.05 89.8555 361.715C89.8555 362.38 89.331 362.905 88.6658 362.905C88.0006 362.905 87.4761 362.38 87.4761 361.715Z" fill="#08C2FA"/>
<path d="M-0.0276208 379.751C-0.0276209 379.099 0.496739 378.562 1.16189 378.562C1.82705 378.562 2.35156 379.086 2.35156 379.751C2.35156 380.416 1.82705 380.941 1.16189 380.941C0.49674 380.941 -0.0276207 380.416 -0.0276208 379.751Z" fill="#08C2FA"/>
<path d="M17.0195 361.715C17.0195 360.5 18.0044 359.502 19.2324 359.502C20.4604 359.502 21.4453 360.487 21.4453 361.715C21.4453 362.943 20.4604 363.928 19.2324 363.928C18.0044 363.928 17.0195 362.943 17.0195 361.715Z" fill="#08C2FA"/>
<path d="M111.001 32.4136C110.132 32.4136 109.427 33.1181 109.427 33.987C109.427 34.8559 110.132 35.5603 111.001 35.5603C111.87 35.5603 112.574 34.8559 112.574 33.987C112.574 33.1181 111.87 32.4136 111.001 32.4136Z" stroke="#A7EBFF" stroke-width="0.57" stroke-miterlimit="10"/>
<path d="M104.966 32.4136C104.097 32.4136 103.392 33.1181 103.392 33.987C103.392 34.8559 104.097 35.5603 104.966 35.5603C105.835 35.5603 106.539 34.8559 106.539 33.987C106.539 33.1181 105.835 32.4136 104.966 32.4136Z" stroke="#A7EBFF" stroke-width="0.57" stroke-miterlimit="10"/>
<path d="M98.9384 32.4136C98.0695 32.4136 97.3651 33.1181 97.3651 33.987C97.3651 34.8559 98.0695 35.5603 98.9384 35.5603C99.8073 35.5603 100.512 34.8559 100.512 33.987C100.512 33.1181 99.8073 32.4136 98.9384 32.4136Z" stroke="#A7EBFF" stroke-width="0.57" stroke-miterlimit="10"/>
<path d="M92.9148 32.4136C92.0459 32.4136 91.3415 33.1181 91.3415 33.987C91.3415 34.8559 92.0459 35.5603 92.9148 35.5603C93.7837 35.5603 94.4883 34.8559 94.4883 33.987C94.4883 33.1181 93.7837 32.4136 92.9148 32.4136Z" stroke="#A7EBFF" stroke-width="0.57" stroke-miterlimit="10"/>
<path d="M28.6094 244.456L-29.9497 244.456L-68.2089 282.703L-112.825 282.703L-148.347 318.212L-195.458 318.212" stroke="#A7EBFF" stroke-width="0.57" stroke-miterlimit="10"/>
<path d="M34.4062 265.37L-67.1319 265.37L-87.6621 244.84L-172.034 244.84" stroke="#A7EBFF" stroke-width="0.23" stroke-miterlimit="10"/>
<path d="M79.5195 329.66L-25.3316 329.66L-49.8016 305.19L-49.8016 288.165L17.0207 288.165L28.4691 299.613" stroke="#A7EBFF" stroke-width="0.23" stroke-miterlimit="10"/>
<path d="M22.7383 91.1258L19.8474 92.4305L22.7383 93.9911L22.7383 91.1258Z" fill="#08C2FA"/>
<path d="M17.2773 91.1258L14.3865 92.4305L17.2773 93.9911L17.2773 91.1258Z" fill="#08C2FA"/>
<path d="M11.8164 91.1258L8.92554 92.4305L11.8164 93.9911L11.8164 91.1258Z" fill="#08C2FA"/>
<path d="M6.35156 91.1258L3.46069 92.4305L6.35156 93.9911L6.35156 91.1258Z" fill="#08C2FA"/>
<path d="M370.792 69.4572L372.992 69.4572L372.992 65.3895L370.792 65.3895L370.792 69.4572Z" fill="#A7EBFF"/>
<path d="M367.019 69.4572L369.219 69.4572L369.219 65.3895L367.019 65.3895L367.019 69.4572Z" fill="#A7EBFF"/>
<path d="M363.234 69.4572L365.434 69.4572L365.434 65.3895L363.234 65.3895L363.234 69.4572Z" fill="#A7EBFF"/>
<path d="M359.46 69.4572L361.66 69.4572L361.66 65.3895L359.46 65.3895L359.46 69.4572Z" fill="#A7EBFF"/>
<path d="M355.671 69.4572L357.871 69.4572L357.871 65.3895L355.671 65.3895L355.671 69.4572Z" fill="#A7EBFF"/>
<path d="M371.894 285.568L374.094 285.568L374.094 281.5L371.894 281.5L371.894 285.568Z" fill="#A7EBFF"/>
<path d="M368.12 285.568L370.32 285.568L370.32 281.5L368.12 281.5L368.12 285.568Z" fill="#A7EBFF"/>
<path d="M364.335 285.568L366.535 285.568L366.535 281.5L364.335 281.5L364.335 285.568Z" fill="#A7EBFF"/>
<path d="M360.562 285.568L362.762 285.568L362.762 281.5L360.562 281.5L360.562 285.568Z" fill="#A7EBFF"/>
<path d="M356.773 285.568L358.973 285.568L358.973 281.5L356.773 281.5L356.773 285.568Z" fill="#A7EBFF"/>
<path d="M35.6836 10.0409L30.6567 10.0409" stroke="#A7EBFF" stroke-width="0.57" stroke-miterlimit="10"/>
<path d="M26.1128 12.6503L30.7305 12.6503L30.7305 8.03259L26.1128 8.03259L26.1128 12.6503Z" stroke="#A7EBFF" stroke-width="0.57" stroke-miterlimit="10"/>
<path d="M26.1133 10.0409L21.0735 10.0409" stroke="#A7EBFF" stroke-width="0.57" stroke-miterlimit="10"/>
<path d="M16.5464 12.6503L21.1641 12.6503L21.1641 8.03259L16.5464 8.03259L16.5464 12.6503Z" stroke="#A7EBFF" stroke-width="0.57" stroke-miterlimit="10"/>
<path d="M16.5469 10.0409L11.5071 10.0409" stroke="#A7EBFF" stroke-width="0.57" stroke-miterlimit="10"/>
<path d="M6.97998 12.6503L11.5977 12.6503L11.5977 8.03259L6.97998 8.03259L6.97998 12.6503Z" stroke="#A7EBFF" stroke-width="0.57" stroke-miterlimit="10"/>
<path d="M6.98047 10.0409L1.94057 10.0409" stroke="#A7EBFF" stroke-width="0.57" stroke-miterlimit="10"/>
<path d="M-2.58643 12.6503L2.03125 12.6503L2.03125 8.03262L-2.58643 8.03262L-2.58643 12.6503Z" stroke="#A7EBFF" stroke-width="0.57" stroke-miterlimit="10"/>
<path d="M337.738 26.9511L334.08 26.9511" stroke="#A7EBFF" stroke-width="0.41" stroke-miterlimit="10"/>
<path d="M330.793 28.8442L334.145 28.8442L334.145 25.4929L330.793 25.4929L330.793 28.8442Z" stroke="#A7EBFF" stroke-width="0.41" stroke-miterlimit="10"/>
<path d="M330.781 26.9511L327.123 26.9511" stroke="#A7EBFF" stroke-width="0.41" stroke-miterlimit="10"/>
<path d="M323.832 28.8442L327.184 28.8442L327.184 25.4929L323.832 25.4929L323.832 28.8442Z" stroke="#A7EBFF" stroke-width="0.41" stroke-miterlimit="10"/>
<path d="M323.832 26.9511L320.161 26.9511" stroke="#A7EBFF" stroke-width="0.41" stroke-miterlimit="10"/>
<path d="M316.875 28.8442L320.227 28.8442L320.227 25.4929L316.875 25.4929L316.875 28.8442Z" stroke="#A7EBFF" stroke-width="0.41" stroke-miterlimit="10"/>
<path d="M316.875 26.9511L313.217 26.9511" stroke="#A7EBFF" stroke-width="0.41" stroke-miterlimit="10"/>
<path d="M309.918 26.9511L306.26 26.9511" stroke="#A7EBFF" stroke-width="0.41" stroke-miterlimit="10"/>
<path d="M309.914 28.8442L313.266 28.8442L313.266 25.4929L309.914 25.4929L309.914 28.8442Z" stroke="#A7EBFF" stroke-width="0.41" stroke-miterlimit="10"/>
<path d="M26.625 188.315L20.9967 188.315" stroke="#A7EBFF" stroke-width="0.47" stroke-miterlimit="10"/>
<path d="M15.9182 191.231L21.0859 191.231L21.0859 186.064L15.9182 186.064L15.9182 191.231Z" stroke="#A7EBFF" stroke-width="0.47" stroke-miterlimit="10"/>
<path d="M15.918 188.315L10.2769 188.315" stroke="#A7EBFF" stroke-width="0.47" stroke-miterlimit="10"/>
<path d="M5.19941 191.231L10.3672 191.231L10.3672 186.063L5.19941 186.063L5.19941 191.231Z" stroke="#A7EBFF" stroke-width="0.47" stroke-miterlimit="10"/>
<path d="M5.19922 188.315L-0.441837 188.315" stroke="#A7EBFF" stroke-width="0.47" stroke-miterlimit="10"/>
<path d="M136.184 68.613L40.184 68.613L11.493 39.9219L-93.5885 39.9219L-147.108 93.4284L-174.417 93.4284L-223.843 43.9895L-274.958 43.9895" stroke="#A7EBFF" stroke-width="0.57" stroke-miterlimit="10"/>
<path d="M50.1133 130.805L-5.50374 130.805L-22.9384 148.239L-52.3331 148.239L-86.2559 114.329L-126.869 114.329" stroke="#A7EBFF" stroke-width="0.57" stroke-miterlimit="10"/>
<path d="M70.8594 105.708L43.0509 105.708L26.5373 89.2072L-49.61 89.2072L-61.0584 100.656L-45.4784 116.235L-13.5255 116.235L-2.95979 105.683" stroke="#A7EBFF" stroke-width="0.23" stroke-miterlimit="10"/>
<path d="M96.3672 68.6128L79.4698 51.7154L47.4144 51.7154" stroke="#A7EBFF" stroke-width="0.23" stroke-miterlimit="10"/>
<path d="M152.418 64.5069L116.372 28.4607L53.8603 28.4607L35.3766 9.9771" stroke="#A7EBFF" stroke-width="0.57" stroke-miterlimit="10"/>
<path d="M46.2378 51.7156C46.2378 51.0632 46.7624 50.526 47.4275 50.526C48.0927 50.526 48.6172 51.0504 48.6172 51.7156C48.6172 52.3807 48.0927 52.9052 47.4275 52.9052C46.7624 52.9052 46.2378 52.3807 46.2378 51.7156Z" fill="#08C2FA"/>
<path d="M39.0114 68.6129C39.0114 67.9606 39.5358 67.4233 40.201 67.4233C40.8661 67.4233 41.3906 67.9478 41.3906 68.6129C41.3906 69.2781 40.8661 69.8026 40.201 69.8026C39.5358 69.8026 39.0114 69.2781 39.0114 68.6129Z" fill="#08C2FA"/>
<path d="M47.9102 130.204C47.9102 128.988 48.8951 127.991 50.123 127.991C51.351 127.991 52.3359 128.976 52.3359 130.204C52.3359 131.432 51.351 132.416 50.123 132.416C48.8951 132.416 47.9102 131.432 47.9102 130.204Z" fill="#08C2FA"/>
<path d="M77.8047 51.7154C77.8047 50.5002 78.7896 49.5025 80.0176 49.5025C81.2456 49.5025 82.2305 50.4874 82.2305 51.7154C82.2305 52.9434 81.2456 53.9283 80.0176 53.9283C78.7896 53.9283 77.8047 52.9434 77.8047 51.7154Z" fill="#08C2FA"/>
<path d="M52.1953 28.4607C52.1953 27.2455 53.1802 26.2478 54.4082 26.2478C55.6362 26.2478 56.6211 27.2327 56.6211 28.4607C56.6211 29.6887 55.6362 30.6736 54.4082 30.6736C53.1802 30.6736 52.1953 29.6887 52.1953 28.4607Z" fill="#08C2FA"/>
<path d="M9.28125 39.9217C9.28125 38.7066 10.2662 37.7089 11.4941 37.7089C12.7221 37.7089 13.707 38.6938 13.707 39.9217C13.707 41.1497 12.7221 42.1347 11.4941 42.1347C10.2662 42.1347 9.28125 41.1497 9.28125 39.9217Z" fill="#08C2FA"/>
<path d="M40.8516 105.619C40.8516 104.403 41.8365 103.406 43.0645 103.406C44.2924 103.406 45.2773 104.391 45.2773 105.619C45.2773 106.846 44.2924 107.831 43.0645 107.831C41.8365 107.831 40.8516 106.846 40.8516 105.619Z" stroke="#A7EBFF" stroke-width="0.57" stroke-miterlimit="10"/>
<path d="M278.619 102.715L294.673 86.6616L328.672 86.6616L353.155 62.1788L441.07 62.1788" stroke="#A7EBFF" stroke-width="0.57" stroke-miterlimit="10"/>
<path d="M287.84 315.896L328.683 356.752L398.742 356.752L416.266 374.289L512.24 374.289L522.281 384.318" stroke="#A7EBFF" stroke-width="0.57" stroke-miterlimit="10"/>
<path d="M322.814 251.671L346.708 275.552L419.184 275.552L449.27 305.651L400.931 305.651L390.352 295.072" stroke="#A7EBFF" stroke-width="0.23" stroke-miterlimit="10"/>
<path d="M324.615 244.405L386.039 244.405L406.736 223.709L476.104 223.709L504.68 252.285" stroke="#A7EBFF" stroke-width="0.57" stroke-miterlimit="10"/>
<path d="M327.621 216.776L378.301 216.776L398.243 236.705L530.122 236.705L564.301 202.526L564.301 174.973" stroke="#A7EBFF" stroke-width="0.23" stroke-miterlimit="10"/>
<path d="M324.617 178.056L414.656 178.056L454.655 138.057L492.658 138.057" stroke="#A7EBFF" stroke-width="0.57" stroke-miterlimit="10"/>
<path d="M306.772 137.111L347.653 137.111L371.33 113.421L414.654 113.421" stroke="#A7EBFF" stroke-width="0.23" stroke-miterlimit="10"/>
<path d="M217.615 67.4362L247.611 37.4404L295.579 37.4404L323.311 9.70859L378.301 9.70859" stroke="#A7EBFF" stroke-width="0.57" stroke-miterlimit="10"/>
<path d="M190.357 378.561L266.632 378.561L289.925 401.855L356.402 401.855" stroke="#A7EBFF" stroke-width="0.23" stroke-miterlimit="10"/>
<path d="M325.41 357.085C325.41 355.869 326.395 354.872 327.623 354.872C328.851 354.872 329.836 355.857 329.836 357.085C329.836 358.313 328.851 359.298 327.623 359.298C326.395 359.298 325.41 358.313 325.41 357.085Z" fill="#08C2FA"/>
<path d="M345.363 275.719C345.363 275.066 345.887 274.529 346.553 274.529C347.218 274.529 347.742 275.053 347.742 275.719C347.742 276.384 347.218 276.908 346.553 276.908C345.887 276.908 345.363 276.384 345.363 275.719Z" fill="#08C2FA"/>
<path d="M346.465 137.111C346.465 136.459 346.989 135.921 347.654 135.921C348.319 135.921 348.844 136.446 348.844 137.111C348.844 137.776 348.319 138.301 347.654 138.301C346.989 138.301 346.465 137.776 346.465 137.111Z" fill="#08C2FA"/>
<path d="M370.062 113.421C370.062 112.769 370.587 112.232 371.252 112.232C371.917 112.232 372.441 112.756 372.441 113.421C372.441 114.087 371.917 114.611 371.252 114.611C370.587 114.611 370.062 114.087 370.062 113.421Z" fill="#08C2FA"/>
<path d="M322.812 249.611C321.674 249.611 320.752 250.533 320.752 251.671C320.752 252.808 321.674 253.73 322.812 253.73C323.949 253.73 324.871 252.808 324.871 251.671C324.871 250.533 323.949 249.611 322.812 249.611Z" fill="#A7EBFF"/>
<path d="M351.262 61.5008C351.262 60.2856 352.247 59.2879 353.475 59.2879C354.703 59.2879 355.687 60.2728 355.687 61.5008C355.687 62.7288 354.703 63.7137 353.475 63.7137C352.247 63.7137 351.262 62.7288 351.262 61.5008Z" fill="#08C2FA"/>
<path d="M321.625 9.70843C321.625 8.49325 322.61 7.4955 323.838 7.4955C325.066 7.4955 326.051 8.48045 326.051 9.70843C326.051 10.9364 325.066 11.9214 323.838 11.9214C322.61 11.9214 321.625 10.9364 321.625 9.70843Z" fill="#08C2FA"/>
<path d="M245.465 38.0031C245.465 36.7879 246.45 35.7902 247.678 35.7902C248.906 35.7902 249.891 36.7751 249.891 38.0031C249.891 39.2311 248.906 40.216 247.678 40.216C246.45 40.216 245.465 39.2311 245.465 38.0031Z" fill="#08C2FA"/>
<path d="M322.402 178.056C322.402 176.841 323.387 175.843 324.615 175.843C325.843 175.843 326.828 176.828 326.828 178.056C326.828 179.284 325.843 180.269 324.615 180.269C323.387 180.269 322.402 179.284 322.402 178.056Z" fill="#08C2FA"/>
<path d="M258.05 49.17L291.039 16.1809L420.514 16.1809" stroke="#A7EBFF" stroke-width="0.23" stroke-miterlimit="10"/>
<path d="M348.831 357.085L365.127 340.789L445.739 340.789L462.457 357.507" stroke="#A7EBFF" stroke-width="0.23" stroke-miterlimit="10"/>
<path d="M324.27 181.958L402.848 181.958L419.566 198.676" stroke="#A7EBFF" stroke-width="0.23" stroke-miterlimit="10"/>
<defs>
<filter id="filter0_d_411_836" x="124.727" y="161.977" width="103.507" height="103.508" filterUnits="userSpaceOnUse" color-interpolation-filters="sRGB">
<feFlood flood-opacity="0" result="BackgroundImageFix"/>
<feColorMatrix in="SourceAlpha" type="matrix" values="0 0 0 0 0 0 0 0 0 0 0 0 0 0 0 0 0 0 127 0" result="hardAlpha"/>
<feOffset/>
<feGaussianBlur stdDeviation="3.07"/>
<feColorMatrix type="matrix" values="0 0 0 0 0 0 0 0 0 0 0 0 0 0 0 0 0 0 0.2 0"/>
<feBlend mode="normal" in2="BackgroundImageFix" result="effect1_dropShadow_411_836"/>
<feBlend mode="normal" in="SourceGraphic" in2="effect1_dropShadow_411_836" result="shape"/>
</filter>
<filter id="filter1_d_411_836" x="126.709" y="164.012" width="99.4094" height="99.4087" filterUnits="userSpaceOnUse" color-interpolation-filters="sRGB">
<feFlood flood-opacity="0" result="BackgroundImageFix"/>
<feColorMatrix in="SourceAlpha" type="matrix" values="0 0 0 0 0 0 0 0 0 0 0 0 0 0 0 0 0 0 127 0" result="hardAlpha"/>
<feOffset/>
<feGaussianBlur stdDeviation="2.95"/>
<feColorMatrix type="matrix" values="0 0 0 0 0 0 0 0 0 0 0 0 0 0 0 0 0 0 0.3 0"/>
<feBlend mode="normal" in2="BackgroundImageFix" result="effect1_dropShadow_411_836"/>
<feBlend mode="normal" in="SourceGraphic" in2="effect1_dropShadow_411_836" result="shape"/>
</filter>
</defs>
</svg>
