<svg width="1203" height="606" viewBox="0 0 1203 606" fill="none" xmlns="http://www.w3.org/2000/svg">
<path d="M807.967 362.35L615.564 329.972L806.431 290.313" stroke="#A7EBFF" stroke-width="0.160287" stroke-miterlimit="10"/>
<path d="M670.231 517.29L615.563 329.973L483.723 473.783" stroke="#A7EBFF" stroke-width="0.160287" stroke-miterlimit="10"/>
<path d="M471.802 198.099L615.563 329.973L426.678 281.001" stroke="#A7EBFF" stroke-width="0.160287" stroke-miterlimit="10"/>
<path d="M668.35 142.111L615.564 329.973" stroke="#A7EBFF" stroke-width="0.160287" stroke-miterlimit="10"/>
<g filter="url(#filter0_d_2005_850)">
<path d="M615.564 388.851C648.081 388.851 674.442 362.49 674.442 329.973C674.442 297.455 648.081 271.095 615.564 271.095C583.046 271.095 556.686 297.455 556.686 329.973C556.686 362.49 583.046 388.851 615.564 388.851Z" fill="#08C2FA"/>
<path d="M615.563 271.443C647.888 271.443 674.094 297.648 674.094 329.973C674.094 362.298 647.889 388.503 615.563 388.503C583.239 388.503 557.034 362.298 557.034 329.973C557.034 297.648 583.239 271.444 615.563 271.443Z" stroke="#A7EBFF" stroke-width="0.696898"/>
</g>
<g filter="url(#filter1_d_2005_850)">
<path d="M671.454 339.05C676.456 308.231 655.528 279.192 624.709 274.189C593.889 269.186 564.85 290.115 559.847 320.934C554.845 351.753 575.773 380.793 606.592 385.795C637.412 390.798 666.451 369.87 671.454 339.05Z" fill="#08C2FA"/>
<path d="M560.191 320.99C565.163 290.361 594.023 269.561 624.652 274.533C655.282 279.505 676.081 308.366 671.11 338.995C666.138 369.624 637.277 390.423 606.648 385.451C576.019 380.479 555.22 351.619 560.191 320.99Z" stroke="#A7EBFF" stroke-width="0.696898"/>
</g>
<path d="M655.885 419.979C643.579 425.499 629.937 428.574 615.564 428.574C612.753 428.574 609.958 428.451 607.207 428.209L608.962 408.381C611.139 408.575 613.345 408.666 615.564 408.666C627.002 408.666 637.871 406.228 647.69 401.839L655.885 419.979ZM564.126 389.528C574.008 398.072 586.042 404.189 599.303 406.983L595.266 426.494C578.589 422.997 563.457 415.298 551.037 404.533L564.126 389.528ZM701.092 379.089C692.75 393.58 680.832 405.741 666.552 414.391L656.327 397.306C667.672 390.411 677.147 380.738 683.782 369.229L701.092 379.089ZM538.908 347.924C541.981 361.105 548.361 373.012 557.137 382.717L542.412 396.133C531.371 383.923 523.348 368.953 519.494 352.374L538.908 347.924ZM688.699 263.812C699.741 276.022 707.763 290.992 711.617 307.57L692.203 312.021C689.131 298.839 682.75 286.932 673.975 277.228L688.699 263.812ZM574.801 262.639C563.457 269.533 553.98 279.206 547.345 290.714L530.036 280.854C538.364 266.36 550.286 254.196 564.571 245.546L574.801 262.639ZM635.842 233.467C652.52 236.964 667.653 244.663 680.074 255.428L666.993 270.423C657.11 261.876 645.072 255.756 631.809 252.961L635.842 233.467ZM615.216 231.371H615.564C618.375 231.371 621.17 231.493 623.92 231.735L622.166 251.563C619.989 251.37 617.784 251.279 615.564 251.279C604.129 251.279 593.262 253.715 583.443 258.103L575.243 239.949C587.45 234.473 600.972 231.406 615.216 231.356V231.371Z" fill="#08C2FA" stroke="#A7EBFF" stroke-width="0.696898"/>
<path d="M551.087 301.484C546.085 312.819 544.231 325.21 545.506 337.342L542.649 337.661C541.337 325.018 543.275 312.119 548.478 300.318L551.087 301.484Z" fill="#08C2FA" stroke="#A7EBFF" stroke-width="0.696898"/>
<path d="M600.586 261.12C588.473 263.724 576.917 269.559 567.285 278.612L565.305 276.525C575.321 267.1 587.355 261.026 599.991 258.317L600.586 261.12Z" fill="#08C2FA" stroke="#A7EBFF" stroke-width="0.696898"/>
<path d="M623.716 257.1C633.984 258.241 644.039 261.537 653.158 266.987L651.67 269.446C642.908 264.222 633.251 261.043 623.41 259.956L623.716 257.1Z" fill="#08C2FA" stroke="#A7EBFF" stroke-width="0.696898"/>
<path d="M666.418 279.119C666.418 279.119 666.567 279.268 666.633 279.334" stroke="#A7EBFF" stroke-width="1.58893" stroke-miterlimit="10"/>
<path d="M668.366 281.149C694.47 309.367 693.826 353.401 666.401 380.826C638.679 408.548 593.984 408.911 565.816 381.932" stroke="#A7EBFF" stroke-width="1.58893" stroke-miterlimit="10" stroke-dasharray="0.26 1.06"/>
<path d="M564.926 381.042C564.926 381.042 564.777 380.892 564.711 380.826" stroke="#A7EBFF" stroke-width="1.58893" stroke-miterlimit="10"/>
<path d="M568.867 399.669C577.628 405.532 587.27 409.57 597.235 411.8L596.624 414.604C586.313 412.309 576.34 408.122 567.274 402.045L568.867 399.669Z" fill="#08C2FA" stroke="#A7EBFF" stroke-width="0.696898"/>
<path d="M666.703 400.031C655.724 408.056 643.279 413.176 630.411 415.408L629.933 412.578C642.367 410.426 654.407 405.475 665.019 397.724L666.703 400.031Z" fill="#08C2FA" stroke="#A7EBFF" stroke-width="0.696898"/>
<path d="M700.25 348.601C698.205 357.996 694.573 367.119 689.371 375.54L686.94 374.026C691.953 365.886 695.448 357.073 697.443 348.002L700.25 348.601Z" fill="#08C2FA" stroke="#A7EBFF" stroke-width="0.696898"/>
<path d="M688.521 283.052C695.383 293.712 699.662 305.538 701.39 317.689L698.546 318.087C696.887 306.366 692.755 294.908 686.117 284.606L688.521 283.052Z" fill="#08C2FA" stroke="#A7EBFF" stroke-width="0.696898"/>
<path d="M555.231 390.304C555.231 390.304 555.082 390.155 555.016 390.089" stroke="#A7EBFF" stroke-width="1.58893" stroke-miterlimit="10"/>
<path d="M553.266 388.256C521.929 354.805 522.589 302.284 555.231 269.642C588.17 236.702 641.352 236.322 674.754 268.535" stroke="#A7EBFF" stroke-width="1.58893" stroke-miterlimit="10" stroke-dasharray="0.26 1.07"/>
<path d="M675.66 269.426C675.66 269.426 675.809 269.575 675.876 269.642" stroke="#A7EBFF" stroke-width="1.58893" stroke-miterlimit="10"/>
<path d="M627.681 225.177C624.18 224.765 620.631 224.534 617.031 224.5" stroke="#A7EBFF" stroke-width="0.794464" stroke-miterlimit="10"/>
<path d="M664.896 236.702C655.023 231.452 644.224 227.753 632.799 225.887" stroke="#A7EBFF" stroke-width="0.794464" stroke-miterlimit="10"/>
<path d="M519.635 286.054C518.165 289.257 516.844 292.559 515.705 295.977" stroke="#A7EBFF" stroke-width="0.794464" stroke-miterlimit="10"/>
<path d="M542.108 254.22C534.067 261.98 527.215 271.111 521.898 281.397" stroke="#A7EBFF" stroke-width="0.794464" stroke-miterlimit="10"/>
<path d="M544.152 407.624C546.728 410.018 549.485 412.28 552.375 414.427" stroke="#A7EBFF" stroke-width="0.794464" stroke-miterlimit="10"/>
<path d="M520.822 376.418C525.726 386.457 532.281 395.819 540.437 404.041" stroke="#A7EBFF" stroke-width="0.794464" stroke-miterlimit="10"/>
<path d="M667.342 421.889C670.413 420.172 673.418 418.273 676.357 416.177" stroke="#A7EBFF" stroke-width="0.794464" stroke-miterlimit="10"/>
<path d="M630.455 434.438C641.517 432.886 652.448 429.534 662.784 424.316" stroke="#A7EBFF" stroke-width="0.794464" stroke-miterlimit="10"/>
<path d="M718.972 309.119C718.295 305.668 717.403 302.217 716.33 298.783" stroke="#A7EBFF" stroke-width="0.794464" stroke-miterlimit="10"/>
<path d="M719.516 348.085C721.447 337.089 721.646 325.663 719.879 314.221" stroke="#A7EBFF" stroke-width="0.794464" stroke-miterlimit="10"/>
<path d="M562.463 428.874C527.261 409.936 503.32 372.753 503.32 329.973C503.32 304.15 512.055 280.341 526.716 261.386C533.486 252.636 541.527 244.909 550.542 238.469" stroke="#A7EBFF" stroke-width="0.160287" stroke-miterlimit="10"/>
<path d="M562.445 427.704C563.095 427.704 563.615 428.224 563.615 428.874C563.615 429.523 563.095 430.044 562.445 430.044C561.796 430.044 561.274 429.523 561.274 428.874C561.275 428.224 561.796 427.704 562.445 427.704Z" fill="#08C2FA" stroke="#A7EBFF" stroke-width="0.696898"/>
<path d="M551.036 239.225L550.178 238.036L551.783 237.898L551.036 239.225Z" fill="#08C2FA" stroke="#A7EBFF" stroke-width="0.696898"/>
<path d="M615.564 217.731C645.879 217.731 673.386 229.751 693.579 249.267C714.68 269.675 727.806 298.288 727.806 329.956" stroke="#A7EBFF" stroke-width="0.160287" stroke-miterlimit="10"/>
<path d="M615.564 216.99C615.966 216.99 616.306 217.329 616.306 217.731C616.306 218.133 615.966 218.472 615.564 218.472C615.163 218.472 614.823 218.133 614.823 217.731C614.823 217.329 615.162 216.99 615.564 216.99Z" fill="#08C2FA" stroke="#A7EBFF" stroke-width="0.696898"/>
<path d="M728.509 329.083L727.816 330.36L727.239 329.083H728.509Z" fill="#08C2FA" stroke="#A7EBFF" stroke-width="0.696898"/>
<path d="M725.807 351.091C715.934 402.985 670.33 442.215 615.547 442.215" stroke="#A7EBFF" stroke-width="0.160287" stroke-miterlimit="10"/>
<path d="M725.808 350.25C726.275 350.25 726.648 350.622 726.648 351.09C726.648 351.558 726.276 351.931 725.808 351.931C725.34 351.931 724.968 351.558 724.968 351.09C724.968 350.623 725.34 350.251 725.808 350.25Z" fill="#08C2FA" stroke="#A7EBFF" stroke-width="0.696898"/>
<path d="M615.215 442.493L614.623 442.197L615.215 441.866V442.493Z" fill="#08C2FA" stroke="#A7EBFF" stroke-width="0.696898"/>
<path d="M531.312 476.574C556.032 490.836 584.683 499.032 615.199 499.094V505.531C583.502 505.469 553.762 496.974 528.087 482.158L531.312 476.574ZM767.383 418.037C752.025 444.431 730.006 466.467 703.611 481.809L700.394 476.237C725.802 461.462 747.017 440.233 761.824 414.841L767.383 418.037ZM446.408 330.322C446.467 360.846 454.665 389.489 468.916 414.231L463.361 417.434C448.545 391.759 440.035 362.019 439.973 330.322H446.408ZM767.749 242.511C782.566 268.17 791.077 297.927 791.139 329.625H784.703C784.641 299.106 776.459 270.467 762.178 245.729L767.749 242.511ZM530.701 183.691C505.29 198.483 484.074 219.715 469.282 245.11L463.711 241.892C479.069 215.514 501.105 193.478 527.483 178.12L530.701 183.691ZM615.896 154.398C647.593 154.46 677.333 162.97 703.009 177.787L699.791 183.358C675.069 169.076 646.414 160.895 615.896 160.833V154.398Z" fill="#08C2FA" stroke="#A7EBFF" stroke-width="0.696898"/>
<path d="M474.905 366.033L469.176 367.535C475.698 392.632 488.708 416.391 508.208 436.122C527.707 455.853 551.301 469.128 576.332 475.93L577.901 470.201C553.861 463.646 531.175 450.899 512.435 431.928C493.695 412.957 481.196 390.155 474.922 366.033H474.905ZM758.333 291.833C764.788 316.682 764.64 342.885 757.903 367.651C751.348 391.708 738.602 414.377 719.631 433.117L723.808 437.344C743.539 417.844 756.814 394.234 763.633 369.22C770.633 343.429 770.799 316.17 764.062 290.33L758.333 291.833ZM578 181.457C552.92 187.995 529.144 201.006 509.413 220.505L513.59 224.732C532.545 205.992 555.363 193.493 579.486 187.219C604.351 180.747 630.538 180.912 655.304 187.648L656.873 181.919C631.099 174.902 603.839 174.737 577.983 181.457H578Z" stroke="#A7EBFF" stroke-width="0.160287" stroke-miterlimit="10"/>
<path d="M704.066 437.889C685.335 453.224 662.834 463.496 638.948 467.584L638.286 463.583C661.463 459.607 683.313 449.666 701.51 434.77L704.066 437.889ZM511.217 416.467C525.755 434.071 544.93 448.221 567.778 456.831L566.354 460.636C542.815 451.773 523.063 437.185 508.089 419.046L511.217 416.467ZM753.292 307.258C757.166 330.469 755.218 354.945 746.471 378.528L742.666 377.105C751.16 354.213 753.035 330.455 749.289 307.935L753.292 307.258ZM488.444 282.84C479.951 305.732 478.074 329.49 481.819 352.009L477.817 352.686C473.943 329.475 475.892 304.999 484.639 281.417L488.444 282.84ZM664.755 199.308C688.295 208.171 708.047 222.76 723.021 240.899L719.893 243.493C705.355 225.874 686.18 211.723 663.332 203.114L664.755 199.308ZM592.822 196.362C569.642 200.338 547.788 210.283 529.59 225.183L527.026 222.056C545.758 206.721 568.259 196.449 592.146 192.36L592.822 196.362Z" fill="#08C2FA" stroke="#A7EBFF" stroke-width="0.696898"/>
<path d="M677.334 437.661C659.221 448.086 638.248 454.087 615.913 454.148V451.279C637.732 451.218 658.216 445.363 675.904 435.175L677.334 437.661ZM510.709 390.911C521.291 409.074 536.464 424.23 554.626 434.827L553.191 437.312C534.606 426.477 519.06 410.931 508.226 392.346L510.709 390.911ZM739.708 330.305C739.646 352.641 733.661 373.629 723.22 391.727L720.753 390.308C730.942 372.616 736.796 352.128 736.854 330.305H739.708ZM510.359 269.638C500.172 287.325 494.319 307.808 494.258 329.625H491.389C491.45 307.275 497.434 286.303 507.873 268.207L510.359 269.638ZM677.929 222.638C696.511 233.472 712.054 249.017 722.887 267.6L720.403 269.034C709.822 250.871 694.665 235.715 676.502 225.117L677.929 222.638ZM615.217 208.666C593.399 208.728 572.917 214.581 555.229 224.769L553.794 222.284C571.907 211.859 592.881 205.859 615.217 205.797V208.666Z" fill="#08C2FA" stroke="#A7EBFF" stroke-width="0.696898"/>
<path d="M753.497 467.914C829.68 391.732 829.68 268.216 753.497 192.033C677.315 115.851 553.799 115.851 477.616 192.033C401.434 268.216 401.434 391.732 477.616 467.914C553.799 544.096 677.315 544.096 753.497 467.914Z" stroke="#A7EBFF" stroke-width="0.160287" stroke-miterlimit="10"/>
<path d="M424.35 288.07C425.625 288.07 426.659 289.104 426.659 290.379C426.659 291.655 425.625 292.689 424.35 292.689C423.074 292.689 422.04 291.655 422.04 290.379C422.04 289.104 423.074 288.07 424.35 288.07Z" fill="#08C2FA" stroke="#A7EBFF" stroke-width="0.696898"/>
<path d="M471.818 195.79C473.094 195.79 474.128 196.824 474.128 198.1C474.128 199.375 473.094 200.409 471.818 200.409C470.543 200.409 469.509 199.375 469.509 198.1C469.509 196.824 470.543 195.79 471.818 195.79Z" fill="#08C2FA" stroke="#A7EBFF" stroke-width="0.696898"/>
<path d="M668.35 139.801C669.625 139.801 670.659 140.835 670.659 142.111C670.659 143.386 669.625 144.42 668.35 144.42C667.074 144.42 666.04 143.387 666.04 142.111C666.04 140.835 667.074 139.801 668.35 139.801Z" fill="#08C2FA" stroke="#A7EBFF" stroke-width="0.696898"/>
<path d="M763.963 98.1915C765.431 98.1915 766.621 97.0014 766.621 95.5333C766.621 94.0651 765.431 92.875 763.963 92.875C762.495 92.875 761.305 94.0651 761.305 95.5333C761.305 97.0014 762.495 98.1915 763.963 98.1915Z" stroke="#A7EBFF" stroke-width="0.397232" stroke-miterlimit="10"/>
<path d="M600.307 119.87C601.775 119.87 602.965 118.68 602.965 117.212C602.965 115.744 601.775 114.554 600.307 114.554C598.839 114.554 597.648 115.744 597.648 117.212C597.648 118.68 598.839 119.87 600.307 119.87Z" stroke="#A7EBFF" stroke-width="0.397232" stroke-miterlimit="10"/>
<path d="M380.662 89.8043C382.13 89.8043 383.32 88.6142 383.32 87.1461C383.32 85.6779 382.13 84.4878 380.662 84.4878C379.194 84.4878 378.004 85.6779 378.004 87.1461C378.004 88.6142 379.194 89.8043 380.662 89.8043Z" stroke="#A7EBFF" stroke-width="0.397232" stroke-miterlimit="10"/>
<path d="M245.502 144.984C246.97 144.984 248.16 143.793 248.16 142.325C248.16 140.857 246.97 139.667 245.502 139.667C244.034 139.667 242.844 140.857 242.844 142.325C242.844 143.793 244.034 144.984 245.502 144.984Z" stroke="#A7EBFF" stroke-width="0.397232" stroke-miterlimit="10"/>
<path d="M300.121 350.067C301.589 350.067 302.78 348.876 302.78 347.408C302.78 345.94 301.589 344.75 300.121 344.75C298.653 344.75 297.463 345.94 297.463 347.408C297.463 348.876 298.653 350.067 300.121 350.067Z" stroke="#A7EBFF" stroke-width="0.397232" stroke-miterlimit="10"/>
<path d="M2.85746 509.711C4.32558 509.711 5.51571 508.521 5.51571 507.053C5.51571 505.585 4.32558 504.395 2.85746 504.395C1.38934 504.395 0.199219 505.585 0.199219 507.053C0.199219 508.521 1.38934 509.711 2.85746 509.711Z" stroke="#A7EBFF" stroke-width="0.397232" stroke-miterlimit="10"/>
<path d="M297.908 587.627C299.376 587.627 300.566 586.436 300.566 584.968C300.566 583.5 299.376 582.31 297.908 582.31C296.44 582.31 295.25 583.5 295.25 584.968C295.25 586.436 296.44 587.627 297.908 587.627Z" stroke="#A7EBFF" stroke-width="0.397232" stroke-miterlimit="10"/>
<path d="M512.221 543.378C513.689 543.378 514.879 542.187 514.879 540.719C514.879 539.251 513.689 538.061 512.221 538.061C510.753 538.061 509.562 539.251 509.562 540.719C509.562 542.187 510.753 543.378 512.221 543.378Z" stroke="#A7EBFF" stroke-width="0.397232" stroke-miterlimit="10"/>
<path d="M924.615 347.408C926.083 347.408 927.274 346.218 927.274 344.75C927.274 343.282 926.083 342.092 924.615 342.092C923.147 342.092 921.957 343.282 921.957 344.75C921.957 346.218 923.147 347.408 924.615 347.408Z" stroke="#A7EBFF" stroke-width="0.397232" stroke-miterlimit="10"/>
<path d="M1088.79 364.662C1090.25 364.662 1091.44 363.472 1091.44 362.004C1091.44 360.536 1090.25 359.346 1088.79 359.346C1087.32 359.346 1086.13 360.536 1086.13 362.004C1086.13 363.472 1087.32 364.662 1088.79 364.662Z" stroke="#A7EBFF" stroke-width="0.397232" stroke-miterlimit="10"/>
<path d="M805.043 219.762C806.511 219.762 807.701 218.572 807.701 217.104C807.701 215.635 806.511 214.445 805.043 214.445C803.575 214.445 802.385 215.635 802.385 217.104C802.385 218.572 803.575 219.762 805.043 219.762Z" stroke="#A7EBFF" stroke-width="0.397232" stroke-miterlimit="10"/>
<path d="M964.16 289.818C964.16 294.045 960.726 297.479 956.499 297.479C952.272 297.479 948.838 294.045 948.838 289.818C948.838 285.592 952.272 282.157 956.499 282.157C960.726 282.157 964.16 285.592 964.16 289.818Z" stroke="#A7EBFF" stroke-width="0.160287" stroke-miterlimit="10"/>
<path d="M971.82 554.324C971.82 558.551 968.386 561.985 964.159 561.985C959.932 561.985 956.498 558.551 956.498 554.324C956.498 550.097 959.932 546.663 964.159 546.663C968.386 546.663 971.82 550.097 971.82 554.324Z" stroke="#A7EBFF" stroke-width="0.397232" stroke-miterlimit="10"/>
<path d="M420.47 152.596C424.701 152.596 428.131 149.166 428.131 144.935C428.131 140.703 424.701 137.273 420.47 137.273C416.238 137.273 412.809 140.703 412.809 144.935C412.809 149.166 416.238 152.596 420.47 152.596Z" stroke="#A7EBFF" stroke-width="0.397232" stroke-miterlimit="10"/>
<path d="M315.889 376.022C315.889 380.249 312.454 383.683 308.228 383.683C304.001 383.683 300.566 380.249 300.566 376.022C300.566 371.795 304.001 368.361 308.228 368.361C312.454 368.361 315.889 371.795 315.889 376.022Z" stroke="#A7EBFF" stroke-width="0.397232" stroke-miterlimit="10"/>
<path d="M900.478 383.716C900.478 387.943 897.044 391.377 892.817 391.377C888.591 391.377 885.156 387.943 885.156 383.716C885.156 379.489 888.591 376.055 892.817 376.055C897.044 376.055 900.478 379.489 900.478 383.716Z" stroke="#A7EBFF" stroke-width="0.160287" stroke-miterlimit="10"/>
<path d="M470.449 493.563C470.449 497.79 467.015 501.225 462.788 501.225C458.561 501.225 455.127 497.79 455.127 493.563C455.127 489.337 458.561 485.902 462.788 485.902C467.015 485.902 470.449 489.337 470.449 493.563Z" stroke="#A7EBFF" stroke-width="0.160287" stroke-miterlimit="10"/>
<path d="M116.567 514.714C120.798 514.714 124.228 511.284 124.228 507.053C124.228 502.822 120.798 499.392 116.567 499.392C112.336 499.392 108.906 502.822 108.906 507.053C108.906 511.284 112.336 514.714 116.567 514.714Z" stroke="#A7EBFF" stroke-width="0.160287" stroke-miterlimit="10"/>
<path d="M1100.97 195.111C1100.97 196.581 1099.78 197.77 1098.31 197.77C1096.84 197.77 1095.65 196.581 1095.65 195.111C1095.65 193.642 1096.84 192.453 1098.31 192.453C1099.78 192.453 1100.97 193.642 1100.97 195.111Z" stroke="#A7EBFF" stroke-width="0.397232" stroke-miterlimit="10"/>
<path d="M715.488 155.617C716.956 155.617 718.147 154.427 718.147 152.959C718.147 151.49 716.956 150.3 715.488 150.3C714.02 150.3 712.83 151.49 712.83 152.959C712.83 154.427 714.02 155.617 715.488 155.617Z" stroke="#A7EBFF" stroke-width="0.397232" stroke-miterlimit="10"/>
<path d="M939.443 161.115C940.912 161.115 942.102 159.925 942.102 158.457C942.102 156.989 940.912 155.799 939.443 155.799C937.975 155.799 936.785 156.989 936.785 158.457C936.785 159.925 937.975 161.115 939.443 161.115Z" stroke="#A7EBFF" stroke-width="0.160287" stroke-miterlimit="10"/>
<path d="M806.43 288.004C807.705 288.004 808.739 289.038 808.739 290.313C808.739 291.589 807.705 292.623 806.43 292.623C805.154 292.623 804.12 291.589 804.12 290.313C804.12 289.038 805.154 288.004 806.43 288.004Z" fill="#08C2FA" stroke="#A7EBFF" stroke-width="0.696898"/>
<path d="M807.967 360.041C809.242 360.041 810.276 361.075 810.276 362.351C810.276 363.626 809.242 364.66 807.967 364.66C806.691 364.66 805.657 363.626 805.657 362.351C805.657 361.075 806.691 360.041 807.967 360.041Z" fill="#08C2FA" stroke="#A7EBFF" stroke-width="0.696898"/>
<path d="M670.232 514.98C671.508 514.98 672.542 516.014 672.542 517.29C672.542 518.566 671.508 519.6 670.232 519.6C668.957 519.6 667.923 518.566 667.923 517.29C667.923 516.014 668.957 514.98 670.232 514.98Z" fill="#08C2FA" stroke="#A7EBFF" stroke-width="0.696898"/>
<path d="M483.725 470.962C485 470.962 486.034 471.996 486.034 473.271C486.034 474.547 485 475.581 483.725 475.581C482.449 475.581 481.415 474.547 481.415 473.271C481.415 471.996 482.449 470.962 483.725 470.962Z" fill="#08C2FA" stroke="#A7EBFF" stroke-width="0.696898"/>
<path d="M668.35 142.111L693.034 117.444H742.269L762.165 97.5479" stroke="#A7EBFF" stroke-width="0.397232" stroke-miterlimit="10"/>
<path d="M693.082 116.306C693.748 116.306 694.269 116.827 694.27 117.493C694.27 118.145 693.746 118.68 693.082 118.68C692.416 118.68 691.896 118.159 691.896 117.493C691.896 116.827 692.416 116.306 693.082 116.306Z" fill="#08C2FA" stroke="#A7EBFF" stroke-width="0.696898"/>
<path d="M742.236 116.306C742.902 116.306 743.424 116.826 743.424 117.492C743.424 118.144 742.9 118.68 742.236 118.68C741.57 118.68 741.05 118.158 741.05 117.492C741.05 116.826 741.57 116.306 742.236 116.306Z" fill="#08C2FA" stroke="#A7EBFF" stroke-width="0.696898"/>
<path d="M717.09 150.779L728.912 138.957H818.583L841.863 115.677H896.779L937.627 156.525" stroke="#A7EBFF" stroke-width="0.397232" stroke-miterlimit="10"/>
<path d="M728.91 137.771C729.576 137.771 730.097 138.291 730.098 138.957C730.098 139.609 729.574 140.145 728.91 140.145C728.244 140.144 727.724 139.623 727.724 138.957C727.724 138.291 728.244 137.771 728.91 137.771Z" fill="#08C2FA" stroke="#A7EBFF" stroke-width="0.696898"/>
<path d="M841.863 114.49C842.529 114.49 843.051 115.01 843.051 115.676C843.051 116.328 842.527 116.864 841.863 116.864C841.197 116.864 840.677 116.342 840.677 115.676C840.677 115.01 841.197 114.49 841.863 114.49Z" fill="#08C2FA" stroke="#A7EBFF" stroke-width="0.696898"/>
<path d="M1066.96 288.631C1067.62 288.631 1068.14 289.152 1068.14 289.818C1068.14 290.47 1067.62 291.005 1066.96 291.005C1066.29 291.005 1065.77 290.484 1065.77 289.818C1065.77 289.152 1066.29 288.631 1066.96 288.631Z" fill="#08C2FA" stroke="#A7EBFF" stroke-width="0.696898"/>
<path d="M818.532 136.45C819.925 136.45 821.04 137.565 821.04 138.958C821.04 140.335 819.923 141.465 818.532 141.465C817.14 141.465 816.024 140.35 816.024 138.958C816.024 137.565 817.14 136.45 818.532 136.45Z" fill="#08C2FA" stroke="#A7EBFF" stroke-width="0.696898"/>
<path d="M897.208 113.45C898.601 113.45 899.716 114.565 899.716 115.958C899.716 117.335 898.599 118.465 897.208 118.465C895.815 118.465 894.7 117.35 894.7 115.958C894.7 114.565 895.815 113.45 897.208 113.45Z" fill="#08C2FA" stroke="#A7EBFF" stroke-width="0.696898"/>
<path d="M700.084 564.016C701.205 564.016 702.115 563.107 702.115 561.985C702.115 560.864 701.205 559.955 700.084 559.955C698.962 559.955 698.053 560.864 698.053 561.985C698.053 563.107 698.962 564.016 700.084 564.016Z" stroke="#A7EBFF" stroke-width="0.397232" stroke-miterlimit="10"/>
<path d="M707.877 564.016C708.998 564.016 709.907 563.107 709.907 561.985C709.907 560.864 708.998 559.955 707.877 559.955C706.755 559.955 705.846 560.864 705.846 561.985C705.846 563.107 706.755 564.016 707.877 564.016Z" stroke="#A7EBFF" stroke-width="0.397232" stroke-miterlimit="10"/>
<path d="M715.652 564.016C716.774 564.016 717.683 563.107 717.683 561.985C717.683 560.864 716.774 559.955 715.652 559.955C714.53 559.955 713.621 560.864 713.621 561.985C713.621 563.107 714.53 564.016 715.652 564.016Z" stroke="#A7EBFF" stroke-width="0.397232" stroke-miterlimit="10"/>
<path d="M723.429 564.016C724.551 564.016 725.46 563.107 725.46 561.985C725.46 560.864 724.551 559.955 723.429 559.955C722.308 559.955 721.398 560.864 721.398 561.985C721.398 563.107 722.308 564.016 723.429 564.016Z" stroke="#A7EBFF" stroke-width="0.397232" stroke-miterlimit="10"/>
<path d="M930.015 188.787C930.015 189.91 929.107 190.818 927.984 190.818C926.861 190.818 925.953 189.91 925.953 188.787C925.953 187.664 926.861 186.756 927.984 186.756C929.107 186.756 930.015 187.664 930.015 188.787Z" stroke="#A7EBFF" stroke-width="0.397232" stroke-miterlimit="10"/>
<path d="M935.761 190.818C936.883 190.818 937.792 189.909 937.792 188.787C937.792 187.666 936.883 186.756 935.761 186.756C934.64 186.756 933.73 187.666 933.73 188.787C933.73 189.909 934.64 190.818 935.761 190.818Z" stroke="#A7EBFF" stroke-width="0.397232" stroke-miterlimit="10"/>
<path d="M943.539 190.818C944.66 190.818 945.569 189.909 945.569 188.787C945.569 187.666 944.66 186.756 943.539 186.756C942.417 186.756 941.508 187.666 941.508 188.787C941.508 189.909 942.417 190.818 943.539 190.818Z" stroke="#A7EBFF" stroke-width="0.397232" stroke-miterlimit="10"/>
<path d="M951.33 190.818C952.451 190.818 953.36 189.909 953.36 188.787C953.36 187.666 952.451 186.756 951.33 186.756C950.208 186.756 949.299 187.666 949.299 188.787C949.299 189.909 950.208 190.818 951.33 190.818Z" stroke="#A7EBFF" stroke-width="0.397232" stroke-miterlimit="10"/>
<path d="M970.304 189.101C987.23 172.175 987.23 144.733 970.304 127.807C953.378 110.881 925.936 110.881 909.01 127.807C892.084 144.733 892.084 172.175 909.01 189.101C925.936 206.027 953.378 206.027 970.304 189.101Z" stroke="#A7EBFF" stroke-width="0.397232" stroke-miterlimit="10"/>
<path d="M953.422 172.219C961.024 164.617 961.024 152.291 953.422 144.689C945.819 137.087 933.494 137.087 925.892 144.689C918.29 152.291 918.29 164.617 925.892 172.219C933.494 179.821 945.819 179.821 953.422 172.219Z" stroke="#A7EBFF" stroke-width="0.397232" stroke-miterlimit="10"/>
<path d="M244.593 556.8C244.593 557.923 243.685 558.831 242.562 558.831C241.439 558.831 240.531 557.923 240.531 556.8C240.531 555.678 241.439 554.77 242.562 554.77C243.685 554.77 244.593 555.678 244.593 556.8Z" stroke="#A7EBFF" stroke-width="0.397232" stroke-miterlimit="10"/>
<path d="M252.402 556.8C252.402 557.923 251.494 558.831 250.371 558.831C249.248 558.831 248.34 557.923 248.34 556.8C248.34 555.678 249.248 554.77 250.371 554.77C251.494 554.77 252.402 555.678 252.402 556.8Z" stroke="#A7EBFF" stroke-width="0.397232" stroke-miterlimit="10"/>
<path d="M260.196 556.8C260.196 557.923 259.288 558.831 258.166 558.831C257.043 558.831 256.135 557.923 256.135 556.8C256.135 555.678 257.043 554.77 258.166 554.77C259.288 554.77 260.196 555.678 260.196 556.8Z" stroke="#A7EBFF" stroke-width="0.397232" stroke-miterlimit="10"/>
<path d="M268.005 556.8C268.005 557.923 267.097 558.831 265.974 558.831C264.851 558.831 263.943 557.923 263.943 556.8C263.943 555.678 264.851 554.77 265.974 554.77C267.097 554.77 268.005 555.678 268.005 556.8Z" stroke="#A7EBFF" stroke-width="0.397232" stroke-miterlimit="10"/>
<path d="M254.27 569.844C278.28 569.844 297.744 550.381 297.744 526.371C297.744 502.361 278.28 482.897 254.27 482.897C230.261 482.897 210.797 502.361 210.797 526.371C210.797 550.381 230.261 569.844 254.27 569.844Z" stroke="#A7EBFF" stroke-width="0.397232" stroke-miterlimit="10"/>
<path d="M254.271 545.904C265.058 545.904 273.803 537.159 273.803 526.371C273.803 515.584 265.058 506.839 254.271 506.839C243.483 506.839 234.738 515.584 234.738 526.371C234.738 537.159 243.483 545.904 254.271 545.904Z" stroke="#A7EBFF" stroke-width="0.397232" stroke-miterlimit="10"/>
<path d="M1091.72 49.5024C1092.29 49.5024 1092.76 49.9735 1092.76 50.5405C1092.76 51.1076 1092.29 51.5796 1091.72 51.5796C1091.16 51.5795 1090.69 51.1076 1090.69 50.5405C1090.69 49.9736 1091.16 49.5025 1091.72 49.5024Z" fill="#08C2FA" stroke="#A7EBFF" stroke-width="0.696898"/>
<path d="M1097.04 49.5022C1097.61 49.5022 1098.08 49.9734 1098.08 50.5403C1098.08 51.1073 1097.61 51.5793 1097.04 51.5793C1096.47 51.5793 1096 51.1073 1096 50.5403C1096 49.9733 1096.47 49.5023 1097.04 49.5022Z" fill="#08C2FA" stroke="#A7EBFF" stroke-width="0.696898"/>
<path d="M1102.36 49.5022C1102.92 49.5022 1103.4 49.9733 1103.4 50.5403C1103.4 51.1074 1102.92 51.5793 1102.36 51.5793C1101.79 51.5792 1101.32 51.1072 1101.32 50.5403C1101.32 49.9735 1101.79 49.5024 1102.36 49.5022Z" fill="#08C2FA" stroke="#A7EBFF" stroke-width="0.696898"/>
<path d="M1107.67 49.5022C1108.24 49.5022 1108.71 49.9733 1108.71 50.5403C1108.71 51.1074 1108.24 51.5793 1107.67 51.5793C1107.11 51.5792 1106.64 51.1072 1106.64 50.5403C1106.64 49.9735 1107.11 49.5024 1107.67 49.5022Z" fill="#08C2FA" stroke="#A7EBFF" stroke-width="0.696898"/>
<path d="M1099.7 59.4071C1116.05 59.4071 1129.3 46.1529 1129.3 29.8029C1129.3 13.453 1116.05 0.19873 1099.7 0.19873C1083.35 0.19873 1070.1 13.453 1070.1 29.8029C1070.1 46.1529 1083.35 59.4071 1099.7 59.4071Z" stroke="#A7EBFF" stroke-width="0.397232" stroke-miterlimit="10"/>
<path d="M1099.7 43.1108C1107.05 43.1108 1113.01 37.1527 1113.01 29.803C1113.01 22.4532 1107.05 16.4951 1099.7 16.4951C1092.35 16.4951 1086.39 22.4532 1086.39 29.803C1086.39 37.1527 1092.35 43.1108 1099.7 43.1108Z" stroke="#A7EBFF" stroke-width="0.397232" stroke-miterlimit="10"/>
<path d="M199.898 258.433C200.465 258.433 200.937 258.904 200.938 259.471C200.938 260.038 200.466 260.51 199.898 260.51C199.331 260.51 198.86 260.038 198.86 259.471C198.86 258.904 199.332 258.433 199.898 258.433Z" fill="#08C2FA" stroke="#A7EBFF" stroke-width="0.696898"/>
<path d="M194.582 258.433C195.149 258.433 195.621 258.904 195.621 259.471C195.621 260.038 195.149 260.51 194.582 260.51C194.015 260.51 193.544 260.038 193.544 259.471C193.544 258.904 194.015 258.433 194.582 258.433Z" fill="#08C2FA" stroke="#A7EBFF" stroke-width="0.696898"/>
<path d="M189.266 258.433C189.833 258.433 190.305 258.904 190.305 259.471C190.305 260.038 189.833 260.51 189.266 260.51C188.699 260.51 188.228 260.038 188.228 259.471C188.228 258.904 188.699 258.433 189.266 258.433Z" fill="#08C2FA" stroke="#A7EBFF" stroke-width="0.696898"/>
<path d="M183.947 258.433C184.514 258.433 184.986 258.904 184.986 259.471C184.986 260.038 184.514 260.51 183.947 260.51C183.38 260.51 182.909 260.038 182.909 259.471C182.909 258.904 183.38 258.433 183.947 258.433Z" fill="#08C2FA" stroke="#A7EBFF" stroke-width="0.696898"/>
<path d="M191.923 309.813C208.273 309.813 221.527 296.559 221.527 280.209C221.527 263.859 208.273 250.605 191.923 250.605C175.573 250.605 162.318 263.859 162.318 280.209C162.318 296.559 175.573 309.813 191.923 309.813Z" stroke="#A7EBFF" stroke-width="0.397232" stroke-miterlimit="10"/>
<path d="M199.387 291.206C205.473 287.085 207.066 278.811 202.946 272.725C198.825 266.639 190.551 265.046 184.465 269.166C178.379 273.287 176.786 281.561 180.906 287.647C185.027 293.733 193.301 295.326 199.387 291.206Z" stroke="#A7EBFF" stroke-width="0.397232" stroke-miterlimit="10"/>
<path d="M944.148 115.347C959.025 63.9314 1006.46 26.3359 1062.66 26.3359C1065.16 26.3359 1067.63 26.402 1070.09 26.5506" stroke="#A7EBFF" stroke-width="0.397232" stroke-miterlimit="10"/>
<path d="M806.43 290.314H882.017L931.401 240.946H988.992L1034.84 195.111H1095.65" stroke="#A7EBFF" stroke-width="0.397232" stroke-miterlimit="10"/>
<path d="M882.018 289.126C882.684 289.126 883.205 289.647 883.205 290.313C883.205 290.965 882.681 291.5 882.018 291.5C881.352 291.5 880.831 290.979 880.831 290.313C880.831 289.647 881.352 289.127 882.018 289.126Z" fill="#08C2FA" stroke="#A7EBFF" stroke-width="0.696898"/>
<path d="M1034.83 193.924C1035.49 193.924 1036.02 194.445 1036.02 195.111C1036.02 195.763 1035.49 196.298 1034.83 196.298C1034.16 196.298 1033.64 195.777 1033.64 195.111C1033.64 194.445 1034.16 193.925 1034.83 193.924Z" fill="#08C2FA" stroke="#A7EBFF" stroke-width="0.696898"/>
<path d="M989.108 237.365C990.501 237.365 991.616 238.48 991.616 239.872C991.616 241.25 990.5 242.38 989.108 242.38C987.716 242.38 986.601 241.265 986.601 239.872C986.601 238.48 987.716 237.365 989.108 237.365Z" fill="#08C2FA" stroke="#A7EBFF" stroke-width="0.696898"/>
<path d="M798.951 263.318H930.015L956.515 289.818H1065.42" stroke="#A7EBFF" stroke-width="0.160287" stroke-miterlimit="10"/>
<path d="M740.717 180.333H876.057L907.643 211.919V233.895H821.389L806.612 219.118" stroke="#A7EBFF" stroke-width="0.160287" stroke-miterlimit="10"/>
<path d="M907.627 232.709C908.293 232.709 908.814 233.229 908.814 233.895C908.814 234.547 908.291 235.083 907.627 235.083C906.961 235.083 906.44 234.561 906.44 233.895C906.441 233.229 906.961 232.709 907.627 232.709Z" fill="#08C2FA" stroke="#A7EBFF" stroke-width="0.696898"/>
<path d="M876.06 177.826C877.452 177.826 878.567 178.941 878.567 180.334C878.567 181.711 877.451 182.842 876.06 182.842C874.667 182.842 873.552 181.727 873.552 180.334C873.552 178.941 874.667 177.826 876.06 177.826Z" fill="#08C2FA" stroke="#A7EBFF" stroke-width="0.696898"/>
<path d="M973.346 285.73L972.071 286.306V285.049L973.346 285.73Z" fill="#08C2FA" stroke="#A7EBFF" stroke-width="0.696898"/>
<path d="M977.902 285.73L976.628 286.306V285.05L977.902 285.73Z" fill="#08C2FA" stroke="#A7EBFF" stroke-width="0.696898"/>
<path d="M982.459 285.73L981.185 286.306V285.05L982.459 285.73Z" fill="#08C2FA" stroke="#A7EBFF" stroke-width="0.696898"/>
<path d="M987.016 285.73L985.741 286.306V285.05L987.016 285.73Z" fill="#08C2FA" stroke="#A7EBFF" stroke-width="0.696898"/>
<path d="M849.722 111.39L847.114 112.562V109.999L849.722 111.39Z" fill="#08C2FA" stroke="#A7EBFF" stroke-width="0.696898"/>
<path d="M856.758 111.39L854.163 112.561V110L856.758 111.39Z" fill="#08C2FA" stroke="#A7EBFF" stroke-width="0.696898"/>
<path d="M863.809 111.39L861.214 112.561V110L863.809 111.39Z" fill="#08C2FA" stroke="#A7EBFF" stroke-width="0.696898"/>
<path d="M870.861 111.39L868.267 112.561V110L870.861 111.39Z" fill="#08C2FA" stroke="#A7EBFF" stroke-width="0.696898"/>
<path d="M335.571 139.112L332.964 140.284V137.722L335.571 139.112Z" fill="#08C2FA" stroke="#A7EBFF" stroke-width="0.696898"/>
<path d="M342.607 139.112L340.013 140.283V137.722L342.607 139.112Z" fill="#08C2FA" stroke="#A7EBFF" stroke-width="0.696898"/>
<path d="M349.658 139.112L347.063 140.283V137.722L349.658 139.112Z" fill="#08C2FA" stroke="#A7EBFF" stroke-width="0.696898"/>
<path d="M356.709 139.112L354.114 140.283V137.723L356.709 139.112Z" fill="#08C2FA" stroke="#A7EBFF" stroke-width="0.696898"/>
<path d="M116.261 568.117L110.94 570.525V565.259L116.261 568.117Z" fill="#08C2FA" stroke="#A7EBFF" stroke-width="0.696898"/>
<path d="M128.446 568.117L123.126 570.525V565.259L128.446 568.117Z" fill="#08C2FA" stroke="#A7EBFF" stroke-width="0.696898"/>
<path d="M140.632 568.117L135.312 570.525V565.259L140.632 568.117Z" fill="#08C2FA" stroke="#A7EBFF" stroke-width="0.696898"/>
<path d="M152.815 568.117L147.495 570.525V565.259L152.815 568.117Z" fill="#08C2FA" stroke="#A7EBFF" stroke-width="0.696898"/>
<path d="M816.953 486.518L814.356 487.69V485.115L816.953 486.518Z" fill="#08C2FA" stroke="#A7EBFF" stroke-width="0.696898"/>
<path d="M824.002 486.518L821.405 487.69V485.115L824.002 486.518Z" fill="#08C2FA" stroke="#A7EBFF" stroke-width="0.696898"/>
<path d="M831.053 486.518L828.456 487.69V485.115L831.053 486.518Z" fill="#08C2FA" stroke="#A7EBFF" stroke-width="0.696898"/>
<path d="M838.104 486.518L835.507 487.69V485.115L838.104 486.518Z" fill="#08C2FA" stroke="#A7EBFF" stroke-width="0.696898"/>
<path d="M1043.18 191.101V193.227H1042.34V191.101H1043.18Z" fill="#08C2FA" stroke="#A7EBFF" stroke-width="0.696898"/>
<path d="M1045.8 191.101V193.227H1044.97V191.101H1045.8Z" fill="#08C2FA" stroke="#A7EBFF" stroke-width="0.696898"/>
<path d="M1048.45 191.101V193.227H1047.61V191.101H1048.45Z" fill="#08C2FA" stroke="#A7EBFF" stroke-width="0.696898"/>
<path d="M1051.07 191.101V193.227H1050.23V191.101H1051.07Z" fill="#08C2FA" stroke="#A7EBFF" stroke-width="0.696898"/>
<path d="M1053.7 191.101V193.227H1052.86V191.101H1053.7Z" fill="#08C2FA" stroke="#A7EBFF" stroke-width="0.696898"/>
<path d="M922.402 385.782V387.908H921.563V385.782H922.402Z" fill="#08C2FA" stroke="#A7EBFF" stroke-width="0.696898"/>
<path d="M925.043 385.782V387.908H924.204V385.782H925.043Z" fill="#08C2FA" stroke="#A7EBFF" stroke-width="0.696898"/>
<path d="M927.669 385.782V387.908H926.831V385.782H927.669Z" fill="#08C2FA" stroke="#A7EBFF" stroke-width="0.696898"/>
<path d="M930.295 385.782V387.908H929.456V385.782H930.295Z" fill="#08C2FA" stroke="#A7EBFF" stroke-width="0.696898"/>
<path d="M932.936 385.782V387.908H932.097V385.782H932.936Z" fill="#08C2FA" stroke="#A7EBFF" stroke-width="0.696898"/>
<path d="M1036.85 478.046V482.6H1034.71V478.046H1036.85Z" fill="#08C2FA" stroke="#A7EBFF" stroke-width="0.696898"/>
<path d="M1041.73 478.046V482.6H1039.58V478.046H1041.73Z" fill="#08C2FA" stroke="#A7EBFF" stroke-width="0.696898"/>
<path d="M1046.61 478.046V482.6H1044.47V478.046H1046.61Z" fill="#08C2FA" stroke="#A7EBFF" stroke-width="0.696898"/>
<path d="M1051.49 478.046V482.6H1049.34V478.046H1051.49Z" fill="#08C2FA" stroke="#A7EBFF" stroke-width="0.696898"/>
<path d="M1056.37 478.046V482.6H1054.23V478.046H1056.37Z" fill="#08C2FA" stroke="#A7EBFF" stroke-width="0.696898"/>
<path d="M364.397 516.549V521.103H362.255V516.549H364.397Z" fill="#08C2FA" stroke="#A7EBFF" stroke-width="0.696898"/>
<path d="M369.269 516.549V521.103H367.126V516.549H369.269Z" fill="#08C2FA" stroke="#A7EBFF" stroke-width="0.696898"/>
<path d="M374.155 516.549V521.103H372.013V516.549H374.155Z" fill="#08C2FA" stroke="#A7EBFF" stroke-width="0.696898"/>
<path d="M379.026 516.549V521.103H376.884V516.549H379.026Z" fill="#08C2FA" stroke="#A7EBFF" stroke-width="0.696898"/>
<path d="M383.913 516.549V521.103H381.771V516.549H383.913Z" fill="#08C2FA" stroke="#A7EBFF" stroke-width="0.696898"/>
<path d="M362.978 237.596V242.15H360.835V237.596H362.978Z" fill="#08C2FA" stroke="#A7EBFF" stroke-width="0.696898"/>
<path d="M367.849 237.596V242.15H365.706V237.596H367.849Z" fill="#08C2FA" stroke="#A7EBFF" stroke-width="0.696898"/>
<path d="M372.735 237.596V242.15H370.593V237.596H372.735Z" fill="#08C2FA" stroke="#A7EBFF" stroke-width="0.696898"/>
<path d="M377.608 237.596V242.15H375.466V237.596H377.608Z" fill="#08C2FA" stroke="#A7EBFF" stroke-width="0.696898"/>
<path d="M382.495 237.596V242.15H380.353V237.596H382.495Z" fill="#08C2FA" stroke="#A7EBFF" stroke-width="0.696898"/>
<path d="M1071.09 289.818H1074.62" stroke="#A7EBFF" stroke-width="0.160287" stroke-miterlimit="10"/>
<path d="M1077.79 288.002H1074.55V291.238H1077.79V288.002Z" stroke="#A7EBFF" stroke-width="0.160287" stroke-miterlimit="10"/>
<path d="M1077.79 289.818H1081.32" stroke="#A7EBFF" stroke-width="0.160287" stroke-miterlimit="10"/>
<path d="M1084.51 288.002H1081.27V291.238H1084.51V288.002Z" stroke="#A7EBFF" stroke-width="0.160287" stroke-miterlimit="10"/>
<path d="M1084.51 289.818H1088.04" stroke="#A7EBFF" stroke-width="0.160287" stroke-miterlimit="10"/>
<path d="M1091.21 288.002H1087.97V291.238H1091.21V288.002Z" stroke="#A7EBFF" stroke-width="0.160287" stroke-miterlimit="10"/>
<path d="M1091.21 289.818H1094.75" stroke="#A7EBFF" stroke-width="0.160287" stroke-miterlimit="10"/>
<path d="M1097.93 289.818H1101.47" stroke="#A7EBFF" stroke-width="0.160287" stroke-miterlimit="10"/>
<path d="M1097.94 288.002H1094.7V291.238H1097.94V288.002Z" stroke="#A7EBFF" stroke-width="0.160287" stroke-miterlimit="10"/>
<path d="M797.301 592.894H803.789" stroke="#A7EBFF" stroke-width="0.397232" stroke-miterlimit="10"/>
<path d="M809.652 589.526H803.691V595.487H809.652V589.526Z" stroke="#A7EBFF" stroke-width="0.397232" stroke-miterlimit="10"/>
<path d="M809.65 592.895H816.156" stroke="#A7EBFF" stroke-width="0.397232" stroke-miterlimit="10"/>
<path d="M822 589.526H816.039V595.487H822V589.526Z" stroke="#A7EBFF" stroke-width="0.397232" stroke-miterlimit="10"/>
<path d="M822.002 592.895H828.507" stroke="#A7EBFF" stroke-width="0.397232" stroke-miterlimit="10"/>
<path d="M834.353 589.526H828.393V595.487H834.353V589.526Z" stroke="#A7EBFF" stroke-width="0.397232" stroke-miterlimit="10"/>
<path d="M834.35 592.895H840.855" stroke="#A7EBFF" stroke-width="0.397232" stroke-miterlimit="10"/>
<path d="M846.699 592.895H853.205" stroke="#A7EBFF" stroke-width="0.397232" stroke-miterlimit="10"/>
<path d="M846.699 589.526H840.738V595.487H846.699V589.526Z" stroke="#A7EBFF" stroke-width="0.397232" stroke-miterlimit="10"/>
<path d="M152.695 427.635H160.109" stroke="#A7EBFF" stroke-width="0.397232" stroke-miterlimit="10"/>
<path d="M165.953 424.284H159.992V430.244H165.953V424.284Z" stroke="#A7EBFF" stroke-width="0.397232" stroke-miterlimit="10"/>
<path d="M165.955 427.635H172.46" stroke="#A7EBFF" stroke-width="0.397232" stroke-miterlimit="10"/>
<path d="M178.304 424.284H172.344V430.244H178.304V424.284Z" stroke="#A7EBFF" stroke-width="0.397232" stroke-miterlimit="10"/>
<path d="M178.305 427.635H184.81" stroke="#A7EBFF" stroke-width="0.397232" stroke-miterlimit="10"/>
<path d="M190.671 424.284H184.711V430.244H190.671V424.284Z" stroke="#A7EBFF" stroke-width="0.397232" stroke-miterlimit="10"/>
<path d="M190.672 427.635H197.161" stroke="#A7EBFF" stroke-width="0.397232" stroke-miterlimit="10"/>
<path d="M203.02 427.636H209.525" stroke="#A7EBFF" stroke-width="0.397232" stroke-miterlimit="10"/>
<path d="M203.023 424.284H197.062V430.244H203.023V424.284Z" stroke="#A7EBFF" stroke-width="0.397232" stroke-miterlimit="10"/>
<path d="M113.283 109.733H119.789" stroke="#A7EBFF" stroke-width="0.397232" stroke-miterlimit="10"/>
<path d="M125.65 106.365H119.689V112.325H125.65V106.365Z" stroke="#A7EBFF" stroke-width="0.397232" stroke-miterlimit="10"/>
<path d="M125.65 109.733H132.139" stroke="#A7EBFF" stroke-width="0.397232" stroke-miterlimit="10"/>
<path d="M138 106.365H132.039V112.325H138V106.365Z" stroke="#A7EBFF" stroke-width="0.397232" stroke-miterlimit="10"/>
<path d="M138 109.733H144.505" stroke="#A7EBFF" stroke-width="0.397232" stroke-miterlimit="10"/>
<path d="M150.351 106.365H144.391V112.325H150.351V106.365Z" stroke="#A7EBFF" stroke-width="0.397232" stroke-miterlimit="10"/>
<path d="M150.352 109.733H156.857" stroke="#A7EBFF" stroke-width="0.397232" stroke-miterlimit="10"/>
<path d="M162.703 109.733H169.208" stroke="#A7EBFF" stroke-width="0.397232" stroke-miterlimit="10"/>
<path d="M162.703 106.365H156.742V112.325H162.703V106.365Z" stroke="#A7EBFF" stroke-width="0.397232" stroke-miterlimit="10"/>
<path d="M407.41 571.067H412.132" stroke="#A7EBFF" stroke-width="0.285728" stroke-miterlimit="10"/>
<path d="M416.375 568.623H412.049V572.949H416.375V568.623Z" stroke="#A7EBFF" stroke-width="0.285728" stroke-miterlimit="10"/>
<path d="M416.393 571.067H421.115" stroke="#A7EBFF" stroke-width="0.285728" stroke-miterlimit="10"/>
<path d="M425.359 568.623H421.033V572.949H425.359V568.623Z" stroke="#A7EBFF" stroke-width="0.285728" stroke-miterlimit="10"/>
<path d="M425.357 571.067H430.096" stroke="#A7EBFF" stroke-width="0.285728" stroke-miterlimit="10"/>
<path d="M434.34 568.623H430.014V572.949H434.34V568.623Z" stroke="#A7EBFF" stroke-width="0.285728" stroke-miterlimit="10"/>
<path d="M434.338 571.067H439.06" stroke="#A7EBFF" stroke-width="0.285728" stroke-miterlimit="10"/>
<path d="M443.32 571.067H448.042" stroke="#A7EBFF" stroke-width="0.285728" stroke-miterlimit="10"/>
<path d="M443.322 568.623H438.996V572.949H443.322V568.623Z" stroke="#A7EBFF" stroke-width="0.285728" stroke-miterlimit="10"/>
<path d="M808.992 362.78H816.257" stroke="#A7EBFF" stroke-width="0.327542" stroke-miterlimit="10"/>
<path d="M822.811 359.016H816.141V365.686H822.811V359.016Z" stroke="#A7EBFF" stroke-width="0.327542" stroke-miterlimit="10"/>
<path d="M822.812 362.78H830.094" stroke="#A7EBFF" stroke-width="0.327542" stroke-miterlimit="10"/>
<path d="M836.649 359.015H829.979V365.686H836.649V359.015Z" stroke="#A7EBFF" stroke-width="0.327542" stroke-miterlimit="10"/>
<path d="M836.648 362.78H843.93" stroke="#A7EBFF" stroke-width="0.327542" stroke-miterlimit="10"/>
<path d="M850.467 359.016H843.797V365.686H850.467V359.016Z" stroke="#A7EBFF" stroke-width="0.327542" stroke-miterlimit="10"/>
<path d="M850.467 362.781H857.748" stroke="#A7EBFF" stroke-width="0.327542" stroke-miterlimit="10"/>
<path d="M864.303 362.78H871.584L892.52 383.716H934.474L989.291 328.9H1028.37" stroke="#A7EBFF" stroke-width="0.327542" stroke-miterlimit="10"/>
<path d="M864.303 359.016H857.633V365.686H864.303V359.016Z" stroke="#A7EBFF" stroke-width="0.327542" stroke-miterlimit="10"/>
<path d="M989.272 326.392C990.665 326.392 991.78 327.507 991.78 328.899C991.78 330.277 990.664 331.407 989.272 331.407C987.88 331.407 986.765 330.292 986.765 328.899C986.765 327.507 987.88 326.392 989.272 326.392Z" fill="#08C2FA" stroke="#A7EBFF" stroke-width="0.696898"/>
<path d="M1031.51 329.039L1028.72 330.307V327.549L1031.51 329.039Z" fill="#08C2FA" stroke="#A7EBFF" stroke-width="0.696898"/>
<path d="M1201.41 549.163L1198.62 550.431V547.673L1201.41 549.163Z" fill="#08C2FA" stroke="#A7EBFF" stroke-width="0.696898"/>
<path d="M1172.92 218.76L1170.12 220.03V217.256L1172.92 218.76Z" fill="#08C2FA" stroke="#A7EBFF" stroke-width="0.696898"/>
<path d="M667.574 517.29H791.489L828.523 554.324H964.161L1033.24 485.259H1068.49L1132.29 549.074H1198.27" stroke="#A7EBFF" stroke-width="0.397232" stroke-miterlimit="10"/>
<path d="M778.676 437.014H850.466L872.97 414.509H910.912L954.699 458.28H1007.12" stroke="#A7EBFF" stroke-width="0.397232" stroke-miterlimit="10"/>
<path d="M751.895 469.408H787.789L809.105 490.707H907.395L922.172 475.93L902.062 455.819H860.817L847.179 469.441" stroke="#A7EBFF" stroke-width="0.160287" stroke-miterlimit="10"/>
<path d="M718.971 517.29L740.782 539.101H782.158" stroke="#A7EBFF" stroke-width="0.160287" stroke-miterlimit="10"/>
<path d="M646.621 522.59L693.149 569.118H773.838L797.697 592.976" stroke="#A7EBFF" stroke-width="0.397232" stroke-miterlimit="10"/>
<path d="M1100.97 195.111H1114.18L1137.71 218.623H1169.77" stroke="#A7EBFF" stroke-width="0.397232" stroke-miterlimit="10"/>
<path d="M971.82 554.324H1017.23" stroke="#A7EBFF" stroke-width="0.397232" stroke-miterlimit="10"/>
<path d="M1020.37 554.477L1017.57 555.733V552.974L1020.37 554.477Z" fill="#08C2FA" stroke="#A7EBFF" stroke-width="0.696898"/>
<path d="M954.98 457.093C955.646 457.093 956.168 457.613 956.168 458.279C956.168 458.931 955.644 459.467 954.98 459.467C954.315 459.467 953.794 458.945 953.794 458.279C953.794 457.614 954.315 457.093 954.98 457.093Z" fill="#08C2FA" stroke="#A7EBFF" stroke-width="0.696898"/>
<path d="M873.383 413.322C874.049 413.322 874.57 413.843 874.57 414.509C874.57 415.161 874.047 415.696 873.383 415.696C872.717 415.696 872.196 415.175 872.196 414.509C872.196 413.843 872.717 413.323 873.383 413.322Z" fill="#08C2FA" stroke="#A7EBFF" stroke-width="0.696898"/>
<path d="M847.047 468.337C847.713 468.337 848.234 468.857 848.234 469.523C848.234 470.176 847.711 470.711 847.047 470.711C846.381 470.711 845.86 470.189 845.86 469.523C845.861 468.858 846.381 468.337 847.047 468.337Z" fill="#08C2FA" stroke="#A7EBFF" stroke-width="0.696898"/>
<path d="M782.143 537.914C782.809 537.914 783.33 538.435 783.33 539.101C783.33 539.753 782.806 540.288 782.143 540.288C781.477 540.288 780.956 539.767 780.956 539.101C780.956 538.435 781.477 537.914 782.143 537.914Z" fill="#08C2FA" stroke="#A7EBFF" stroke-width="0.696898"/>
<path d="M791.471 516.103C792.137 516.103 792.658 516.624 792.658 517.29C792.658 517.942 792.134 518.477 791.471 518.477C790.805 518.477 790.284 517.955 790.284 517.29C790.284 516.624 790.805 516.103 791.471 516.103Z" fill="#08C2FA" stroke="#A7EBFF" stroke-width="0.696898"/>
<path d="M902.41 454.633C903.076 454.633 903.597 455.153 903.598 455.819C903.598 456.471 903.074 457.007 902.41 457.007C901.744 457.007 901.224 456.485 901.224 455.819C901.224 455.153 901.744 454.633 902.41 454.633Z" fill="#08C2FA" stroke="#A7EBFF" stroke-width="0.696898"/>
<path d="M850.316 435.067C850.982 435.067 851.504 435.588 851.504 436.254C851.504 436.906 850.98 437.441 850.316 437.441C849.65 437.441 849.13 436.92 849.13 436.254C849.13 435.588 849.651 435.068 850.316 435.067Z" fill="#08C2FA" stroke="#A7EBFF" stroke-width="0.696898"/>
<path d="M1007.11 455.772C1008.5 455.772 1009.61 456.887 1009.61 458.28C1009.61 459.657 1008.5 460.788 1007.11 460.788C1005.71 460.788 1004.6 459.672 1004.6 458.28C1004.6 456.887 1005.71 455.772 1007.11 455.772Z" fill="#08C2FA" stroke="#A7EBFF" stroke-width="0.696898"/>
<path d="M911.161 412.001C912.554 412.001 913.669 413.116 913.669 414.509C913.669 415.886 912.552 417.017 911.161 417.017C909.769 417.017 908.653 415.901 908.653 414.509C908.653 413.116 909.769 412.001 911.161 412.001Z" fill="#08C2FA" stroke="#A7EBFF" stroke-width="0.696898"/>
<path d="M778.659 435.282C780.052 435.282 781.167 436.397 781.167 437.79C781.167 439.167 780.05 440.297 778.659 440.297C777.267 440.297 776.151 439.182 776.151 437.79C776.151 436.397 777.267 435.282 778.659 435.282Z" fill="#08C2FA" stroke="#A7EBFF" stroke-width="0.696898"/>
<path d="M906.802 488.2C908.194 488.2 909.31 489.315 909.31 490.708C909.31 492.085 908.193 493.215 906.802 493.215C905.409 493.215 904.294 492.1 904.294 490.708C904.294 489.315 905.409 488.2 906.802 488.2Z" fill="#08C2FA" stroke="#A7EBFF" stroke-width="0.696898"/>
<path d="M740.073 536.593C741.466 536.593 742.581 537.708 742.581 539.101C742.581 540.478 741.464 541.609 740.073 541.609C738.681 541.609 737.565 540.494 737.565 539.101C737.565 537.708 738.681 536.593 740.073 536.593Z" fill="#08C2FA" stroke="#A7EBFF" stroke-width="0.696898"/>
<path d="M773.128 566.61C774.52 566.61 775.636 567.726 775.636 569.118C775.636 570.496 774.519 571.626 773.128 571.626C771.735 571.626 770.62 570.511 770.62 569.118C770.62 567.726 771.735 566.61 773.128 566.61Z" fill="#08C2FA" stroke="#A7EBFF" stroke-width="0.696898"/>
<path d="M828.522 551.816C829.915 551.816 831.03 552.932 831.03 554.324C831.03 555.702 829.914 556.832 828.522 556.832C827.13 556.832 826.015 555.717 826.015 554.324C826.015 552.932 827.13 551.816 828.522 551.816Z" fill="#08C2FA" stroke="#A7EBFF" stroke-width="0.696898"/>
<path d="M790.629 469.524C790.629 471.092 789.357 472.38 787.772 472.38C786.187 472.38 784.916 471.109 784.916 469.524C784.916 467.939 786.187 466.667 787.772 466.667C789.357 466.667 790.629 467.939 790.629 469.524Z" stroke="#A7EBFF" stroke-width="0.397232" stroke-miterlimit="10"/>
<path d="M1156.66 521.517C1156.66 527.279 1151.99 531.968 1146.21 531.968C1140.43 531.968 1135.76 527.296 1135.76 521.517C1135.76 515.738 1140.43 511.065 1146.21 511.065C1151.99 511.065 1156.66 515.738 1156.66 521.517Z" stroke="#A7EBFF" stroke-width="0.397232" stroke-miterlimit="10"/>
<path d="M1146.23 503.817V539.15" stroke="#A7EBFF" stroke-width="0.397232" stroke-miterlimit="10"/>
<path d="M125.418 362.367C125.418 368.13 120.746 372.819 114.967 372.819C109.188 372.819 104.516 368.146 104.516 362.367C104.516 356.589 109.188 351.916 114.967 351.916C120.746 351.916 125.418 356.589 125.418 362.367Z" stroke="#A7EBFF" stroke-width="0.160287" stroke-miterlimit="10"/>
<path d="M483.723 473.271L463.001 493.993H419.115L387.513 525.595H274.033" stroke="#A7EBFF" stroke-width="0.397232" stroke-miterlimit="10"/>
<path d="M471.82 198.099L419.101 145.363H328.67L306.05 122.727H182.168L169.207 109.782" stroke="#A7EBFF" stroke-width="0.397232" stroke-miterlimit="10"/>
<path d="M426.677 281.001L395.834 250.175H302.283L263.449 211.325H325.844L339.499 224.979" stroke="#A7EBFF" stroke-width="0.160287" stroke-miterlimit="10"/>
<path d="M424.351 290.379H345.065L318.35 317.094H228.811L191.926 280.208" stroke="#A7EBFF" stroke-width="0.397232" stroke-miterlimit="10"/>
<path d="M420.469 326.043H355.053L329.312 300.319H159.084L114.967 344.437V380.001" stroke="#A7EBFF" stroke-width="0.160287" stroke-miterlimit="10"/>
<path d="M424.348 376.022H308.127L256.498 427.652H207.443" stroke="#A7EBFF" stroke-width="0.397232" stroke-miterlimit="10"/>
<path d="M447.382 428.874H394.613L364.052 459.452H308.129" stroke="#A7EBFF" stroke-width="0.160287" stroke-miterlimit="10"/>
<path d="M235.084 525.595H191.925L158.341 559.178H83.0843L52.7207 528.815" stroke="#A7EBFF" stroke-width="0.397232" stroke-miterlimit="10"/>
<path d="M562.466 518.809L523.747 557.527H461.831L426.035 593.323H355.055" stroke="#A7EBFF" stroke-width="0.397232" stroke-miterlimit="10"/>
<path d="M597.649 117.212H499.194L469.128 87.146H383.32" stroke="#A7EBFF" stroke-width="0.160287" stroke-miterlimit="10"/>
<path d="M169.204 107.275C170.597 107.275 171.712 108.39 171.712 109.783C171.712 111.16 170.595 112.291 169.204 112.291C167.812 112.291 166.696 111.175 166.696 109.783C166.696 108.39 167.811 107.275 169.204 107.275Z" fill="#08C2FA" stroke="#A7EBFF" stroke-width="0.696898"/>
<path d="M420.47 142.427C421.862 142.427 422.978 143.542 422.978 144.935C422.978 146.312 421.861 147.442 420.47 147.442C419.077 147.442 417.962 146.327 417.962 144.935C417.962 143.542 419.077 142.427 420.47 142.427Z" fill="#08C2FA" stroke="#A7EBFF" stroke-width="0.696898"/>
<path d="M114.919 380.35C115.638 380.35 116.222 380.933 116.222 381.652C116.222 382.372 115.638 382.955 114.919 382.955C114.2 382.955 113.616 382.372 113.616 381.652C113.616 380.933 114.2 380.35 114.919 380.35Z" fill="#08C2FA" stroke="#A7EBFF" stroke-width="0.696898"/>
<path d="M306.312 121.738C306.978 121.738 307.5 122.259 307.5 122.925C307.5 123.577 306.976 124.112 306.312 124.112C305.647 124.112 305.126 123.591 305.126 122.925C305.126 122.259 305.647 121.739 306.312 121.738Z" fill="#08C2FA" stroke="#A7EBFF" stroke-width="0.696898"/>
<path d="M339.582 223.809C340.248 223.809 340.769 224.33 340.77 224.996C340.77 225.648 340.246 226.183 339.582 226.183C338.916 226.183 338.396 225.662 338.396 224.996C338.396 224.33 338.916 223.809 339.582 223.809Z" fill="#08C2FA" stroke="#A7EBFF" stroke-width="0.696898"/>
<path d="M396.031 248.774C396.697 248.774 397.219 249.294 397.219 249.96C397.219 250.613 396.695 251.148 396.031 251.148C395.365 251.148 394.845 250.626 394.845 249.96C394.845 249.295 395.365 248.774 396.031 248.774Z" fill="#08C2FA" stroke="#A7EBFF" stroke-width="0.696898"/>
<path d="M394.613 427.687C395.279 427.687 395.801 428.207 395.801 428.873C395.801 429.525 395.277 430.061 394.613 430.061C393.947 430.06 393.427 429.539 393.427 428.873C393.427 428.207 393.947 427.687 394.613 427.687Z" fill="#08C2FA" stroke="#A7EBFF" stroke-width="0.696898"/>
<path d="M364.15 458.265C364.816 458.265 365.338 458.785 365.338 459.451C365.338 460.103 364.814 460.639 364.15 460.639C363.484 460.639 362.964 460.117 362.964 459.451C362.964 458.785 363.485 458.265 364.15 458.265Z" fill="#08C2FA" stroke="#A7EBFF" stroke-width="0.696898"/>
<path d="M229.271 315.907C229.937 315.907 230.459 316.428 230.459 317.094C230.459 317.746 229.935 318.281 229.271 318.281C228.606 318.281 228.085 317.76 228.085 317.094C228.085 316.428 228.606 315.908 229.271 315.907Z" fill="#08C2FA" stroke="#A7EBFF" stroke-width="0.696898"/>
<path d="M328.535 143.747C329.201 143.747 329.722 144.268 329.723 144.934C329.723 145.586 329.199 146.121 328.535 146.121C327.869 146.121 327.349 145.6 327.349 144.934C327.349 144.268 327.869 143.747 328.535 143.747Z" fill="#08C2FA" stroke="#A7EBFF" stroke-width="0.696898"/>
<path d="M426.678 278.692C427.953 278.692 428.987 279.726 428.987 281.001C428.987 282.277 427.953 283.311 426.678 283.311C425.402 283.311 424.368 282.277 424.368 281.001C424.368 279.726 425.402 278.692 426.678 278.692Z" fill="#08C2FA" stroke="#A7EBFF" stroke-width="0.696898"/>
<path d="M263.45 208.817C264.843 208.817 265.958 209.933 265.958 211.325C265.958 212.703 264.841 213.833 263.45 213.833C262.058 213.833 260.942 212.718 260.942 211.325C260.942 209.933 262.058 208.817 263.45 208.817Z" fill="#08C2FA" stroke="#A7EBFF" stroke-width="0.696898"/>
<path d="M302.78 247.453C304.173 247.453 305.288 248.568 305.288 249.961C305.288 251.338 304.172 252.469 302.78 252.469C301.388 252.469 300.272 251.354 300.272 249.961C300.272 248.568 301.388 247.453 302.78 247.453Z" fill="#08C2FA" stroke="#A7EBFF" stroke-width="0.696898"/>
<path d="M355.632 323.833C357.024 323.833 358.14 324.948 358.14 326.34C358.14 327.718 357.023 328.848 355.632 328.848C354.239 328.848 353.124 327.733 353.124 326.34C353.124 324.948 354.239 323.833 355.632 323.833Z" fill="#08C2FA" stroke="#A7EBFF" stroke-width="0.696898"/>
<path d="M256.501 425.144C257.894 425.144 259.009 426.259 259.009 427.652C259.009 429.029 257.892 430.159 256.501 430.159C255.108 430.159 253.993 429.044 253.993 427.652C253.993 426.259 255.108 425.144 256.501 425.144Z" fill="#08C2FA" stroke="#A7EBFF" stroke-width="0.696898"/>
<path d="M387.103 523.962C388.495 523.962 389.61 525.078 389.61 526.47C389.61 527.848 388.494 528.978 387.103 528.978C385.71 528.978 384.595 527.863 384.595 526.47C384.595 525.078 385.71 523.962 387.103 523.962Z" fill="#08C2FA" stroke="#A7EBFF" stroke-width="0.696898"/>
<path d="M425.356 590.815C426.749 590.815 427.864 591.93 427.864 593.323C427.864 594.7 426.748 595.831 425.356 595.831C423.964 595.831 422.849 594.716 422.849 593.323C422.849 591.93 423.964 590.815 425.356 590.815Z" fill="#08C2FA" stroke="#A7EBFF" stroke-width="0.696898"/>
<path d="M523.663 554.293C525.056 554.293 526.171 555.408 526.171 556.801C526.171 558.178 525.054 559.309 523.663 559.309C522.27 559.309 521.155 558.193 521.155 556.801C521.155 555.408 522.27 554.293 523.663 554.293Z" fill="#08C2FA" stroke="#A7EBFF" stroke-width="0.696898"/>
<path d="M192.155 523.087C193.548 523.087 194.663 524.203 194.663 525.595C194.663 526.973 193.547 528.103 192.155 528.103C190.763 528.103 189.647 526.988 189.647 525.595C189.647 524.203 190.763 523.087 192.155 523.087Z" fill="#08C2FA" stroke="#A7EBFF" stroke-width="0.696898"/>
<path d="M52.7217 525.944C54.1143 525.944 55.2295 527.059 55.2295 528.452C55.2295 529.829 54.1129 530.959 52.7217 530.959C51.3291 530.959 50.2139 529.844 50.2139 528.452C50.2139 527.059 51.3291 525.944 52.7217 525.944Z" fill="#08C2FA" stroke="#A7EBFF" stroke-width="0.696898"/>
<path d="M424.351 373.514C425.743 373.514 426.858 374.629 426.858 376.022C426.858 377.399 425.742 378.53 424.351 378.53C422.958 378.53 421.843 377.414 421.843 376.022C421.843 374.629 422.958 373.514 424.351 373.514Z" fill="#08C2FA" stroke="#A7EBFF" stroke-width="0.696898"/>
<path d="M308.128 456.944C309.52 456.944 310.636 458.06 310.636 459.452C310.636 460.83 309.519 461.96 308.128 461.96C306.735 461.96 305.62 460.845 305.62 459.452C305.62 458.06 306.735 456.944 308.128 456.944Z" fill="#08C2FA" stroke="#A7EBFF" stroke-width="0.696898"/>
<path d="M510.272 542.387L467.691 584.969H300.566" stroke="#A7EBFF" stroke-width="0.160287" stroke-miterlimit="10"/>
<path d="M215.42 545.904H153.603L114.752 507.053H5.51562" stroke="#A7EBFF" stroke-width="0.160287" stroke-miterlimit="10"/>
<path d="M393.095 144.934L372.06 165.969H268.008L246.428 144.389" stroke="#A7EBFF" stroke-width="0.160287" stroke-miterlimit="10"/>
<path d="M424.796 370.986H323.369L301.789 349.406" stroke="#A7EBFF" stroke-width="0.160287" stroke-miterlimit="10"/>
<path d="M217.863 502.578C176.321 483.343 147.51 441.29 147.51 392.516C147.51 359.659 160.57 329.873 181.787 308.046" stroke="#A7EBFF" stroke-width="0.397232" stroke-miterlimit="10"/>
<path d="M925.953 347.409L940.549 362.004H1086.27" stroke="#A7EBFF" stroke-width="0.160287" stroke-miterlimit="10"/>
<g filter="url(#filter2_f_2005_850)">
<circle cx="616.199" cy="330.199" r="198" fill="black"/>
</g>
<defs>
<filter id="filter0_d_2005_850" x="552.407" y="266.816" width="126.314" height="126.314" filterUnits="userSpaceOnUse" color-interpolation-filters="sRGB">
<feFlood flood-opacity="0" result="BackgroundImageFix"/>
<feColorMatrix in="SourceAlpha" type="matrix" values="0 0 0 0 0 0 0 0 0 0 0 0 0 0 0 0 0 0 127 0" result="hardAlpha"/>
<feOffset/>
<feGaussianBlur stdDeviation="2.13948"/>
<feColorMatrix type="matrix" values="0 0 0 0 0 0 0 0 0 0 0 0 0 0 0 0 0 0 0.2 0"/>
<feBlend mode="normal" in2="BackgroundImageFix" result="effect1_dropShadow_2005_850"/>
<feBlend mode="normal" in="SourceGraphic" in2="effect1_dropShadow_2005_850" result="shape"/>
</filter>
<filter id="filter1_d_2005_850" x="554.996" y="269.338" width="121.309" height="121.308" filterUnits="userSpaceOnUse" color-interpolation-filters="sRGB">
<feFlood flood-opacity="0" result="BackgroundImageFix"/>
<feColorMatrix in="SourceAlpha" type="matrix" values="0 0 0 0 0 0 0 0 0 0 0 0 0 0 0 0 0 0 127 0" result="hardAlpha"/>
<feOffset/>
<feGaussianBlur stdDeviation="2.05585"/>
<feColorMatrix type="matrix" values="0 0 0 0 0 0 0 0 0 0 0 0 0 0 0 0 0 0 0.3 0"/>
<feBlend mode="normal" in2="BackgroundImageFix" result="effect1_dropShadow_2005_850"/>
<feBlend mode="normal" in="SourceGraphic" in2="effect1_dropShadow_2005_850" result="shape"/>
</filter>
<filter id="filter2_f_2005_850" x="354.199" y="68.1992" width="524" height="524" filterUnits="userSpaceOnUse" color-interpolation-filters="sRGB">
<feFlood flood-opacity="0" result="BackgroundImageFix"/>
<feBlend mode="normal" in="SourceGraphic" in2="BackgroundImageFix" result="shape"/>
<feGaussianBlur stdDeviation="32" result="effect1_foregroundBlur_2005_850"/>
</filter>
</defs>
</svg>
