<svg width="1441" height="726" viewBox="0 0 1441 726" fill="none" xmlns="http://www.w3.org/2000/svg">
<path d="M967.993 434.144L737.494 395.355L966.153 347.843" stroke="#A7EBFF" stroke-width="0.23" stroke-miterlimit="10"/>
<path d="M802.986 619.762L737.494 395.355L579.549 567.641" stroke="#A7EBFF" stroke-width="0.23" stroke-miterlimit="10"/>
<path d="M565.268 237.371L737.495 395.355L511.209 336.687" stroke="#A7EBFF" stroke-width="0.23" stroke-miterlimit="10"/>
<path d="M800.731 170.296L737.494 395.355" stroke="#A7EBFF" stroke-width="0.23" stroke-miterlimit="10"/>
<g filter="url(#filter0_d_430_18979)">
<path d="M737.495 465.892C776.451 465.892 808.032 434.311 808.032 395.355C808.032 356.399 776.451 324.819 737.495 324.819C698.539 324.819 666.959 356.399 666.959 395.355C666.959 434.311 698.539 465.892 737.495 465.892Z" fill="#08C2FA"/>
</g>
<g filter="url(#filter1_d_430_18979)">
<path d="M804.447 406.23C810.44 369.309 785.368 334.519 748.446 328.526C711.525 322.533 676.736 347.605 670.742 384.527C664.749 421.448 689.821 456.238 726.743 462.231C763.665 468.224 798.454 443.152 804.447 406.23Z" fill="#A7EBFF"/>
</g>
<path d="M676.531 293.645C659.085 304.129 644.547 318.964 634.459 336.667L655.92 348.892C663.912 334.887 675.424 323.138 689.23 314.83L676.551 293.645H676.531ZM645.971 416.362L621.898 421.881C626.527 442.116 636.318 460.373 649.828 475.208L668.085 458.573C657.384 446.843 649.63 432.384 645.971 416.362ZM776.184 480.905C764.375 486.245 751.281 489.212 737.494 489.212C734.705 489.212 731.936 489.094 729.206 488.837L727.03 513.423C730.472 513.74 733.973 513.898 737.494 513.898C754.92 513.898 771.457 510.14 786.351 503.395L776.184 480.885V480.905ZM825.14 315.503L806.883 332.138C817.584 343.867 825.338 358.327 828.997 374.349L853.07 368.83C848.441 348.595 838.65 330.338 825.14 315.503ZM761.467 279.226L756.463 303.417C772.584 306.74 787.202 314.177 799.149 324.601L815.369 306.008C800.276 292.834 781.821 283.439 761.467 279.245V279.226ZM819.067 441.819C811.076 455.823 799.564 467.573 785.758 475.881L798.437 497.065C815.883 486.582 830.421 471.747 840.529 454.043L819.067 441.819ZM675.819 466.129L659.599 484.722C674.692 497.896 693.147 507.292 713.5 511.485L718.505 487.294C702.384 483.971 687.767 476.533 675.819 466.109V466.129ZM737.494 276.793C720.068 276.793 703.531 280.551 688.637 287.296L698.804 309.806C710.613 304.465 723.707 301.498 737.494 301.498C740.283 301.498 743.052 301.617 745.782 301.874L747.958 277.287C744.516 276.971 741.015 276.812 737.494 276.812V276.793Z" fill="#A7EBFF"/>
<path d="M660.806 360.997C654.654 374.744 652.4 389.817 654.022 404.553L649.769 405.028C648.087 389.54 650.461 373.716 656.909 359.276L660.806 361.017V360.997Z" fill="#08C2FA"/>
<path d="M720.048 313.188C705.331 316.274 691.287 323.355 679.637 334.412L676.689 331.307C688.914 319.696 703.67 312.258 719.158 309.014L720.048 313.208V313.188Z" fill="#08C2FA"/>
<path d="M783.108 319.755L780.893 323.415C770.231 316.986 758.442 313.109 746.436 311.843L746.89 307.59C759.53 308.935 771.913 312.99 783.108 319.755Z" fill="#08C2FA"/>
<path d="M798.418 334.432C798.418 334.432 798.596 334.61 798.675 334.689" stroke="#08C2FA" stroke-width="2.28" stroke-miterlimit="10"/>
<path d="M800.751 336.865C832.024 370.669 831.253 423.423 798.398 456.278C765.187 489.489 711.642 489.924 677.896 457.603" stroke="#08C2FA" stroke-width="2.28" stroke-miterlimit="10" stroke-dasharray="0.38 1.52"/>
<path d="M676.829 456.535C676.829 456.535 676.651 456.357 676.572 456.278" stroke="#08C2FA" stroke-width="2.28" stroke-miterlimit="10"/>
<path d="M716.034 493.069L715.124 497.243C702.445 494.474 690.181 489.331 679.064 481.814L681.438 478.274C692.1 485.474 703.869 490.399 716.034 493.069Z" fill="#08C2FA"/>
<path d="M799.369 479.362C785.958 489.252 770.708 495.522 754.943 498.192L754.23 493.979C769.343 491.428 783.98 485.414 796.837 475.94L799.349 479.382L799.369 479.362Z" fill="#08C2FA"/>
<path d="M839.445 417.371C836.972 428.942 832.502 440.177 826.053 450.522L822.434 448.267C828.605 438.338 832.878 427.557 835.271 416.461L839.445 417.351V417.371Z" fill="#08C2FA"/>
<path d="M836.555 381.588C834.597 367.327 829.573 353.382 821.443 340.881L825.023 338.566C833.489 351.601 838.731 366.1 840.788 380.995L836.555 381.588Z" fill="#08C2FA"/>
<path d="M665.216 467.632C665.216 467.632 665.038 467.454 664.959 467.375" stroke="#08C2FA" stroke-width="2.28" stroke-miterlimit="10"/>
<path d="M662.864 465.179C625.321 425.104 626.112 362.184 665.217 323.078C704.679 283.617 768.391 283.162 808.406 321.753" stroke="#08C2FA" stroke-width="2.28" stroke-miterlimit="10" stroke-dasharray="0.38 1.53"/>
<path d="M809.492 322.821C809.492 322.821 809.67 322.999 809.749 323.078" stroke="#08C2FA" stroke-width="2.28" stroke-miterlimit="10"/>
<path d="M752.012 269.81C747.819 269.316 743.566 269.039 739.254 268.999" stroke="#08C2FA" stroke-width="1.14" stroke-miterlimit="10"/>
<path d="M796.597 283.617C784.769 277.326 771.832 272.896 758.145 270.661" stroke="#08C2FA" stroke-width="1.14" stroke-miterlimit="10"/>
<path d="M622.571 342.74C620.811 346.577 619.228 350.533 617.863 354.628" stroke="#08C2FA" stroke-width="1.14" stroke-miterlimit="10"/>
<path d="M649.494 304.604C639.861 313.9 631.652 324.839 625.283 337.162" stroke="#08C2FA" stroke-width="1.14" stroke-miterlimit="10"/>
<path d="M651.943 488.382C655.029 491.25 658.332 493.96 661.794 496.531" stroke="#08C2FA" stroke-width="1.14" stroke-miterlimit="10"/>
<path d="M623.994 450.997C629.869 463.023 637.722 474.239 647.493 484.089" stroke="#08C2FA" stroke-width="1.14" stroke-miterlimit="10"/>
<path d="M799.525 505.472C803.205 503.414 806.805 501.14 810.326 498.628" stroke="#08C2FA" stroke-width="1.14" stroke-miterlimit="10"/>
<path d="M755.336 520.504C768.589 518.645 781.683 514.63 794.066 508.379" stroke="#08C2FA" stroke-width="1.14" stroke-miterlimit="10"/>
<path d="M861.378 370.373C860.567 366.239 859.499 362.105 858.213 357.99" stroke="#08C2FA" stroke-width="1.14" stroke-miterlimit="10"/>
<path d="M862.029 417.054C864.344 403.88 864.581 390.192 862.465 376.485" stroke="#08C2FA" stroke-width="1.14" stroke-miterlimit="10"/>
<path d="M673.88 513.839C631.709 491.151 603.027 446.606 603.027 395.355C603.027 364.419 613.491 335.896 631.056 313.188C639.166 302.705 648.799 293.448 659.599 285.733" stroke="#A7EBFF" stroke-width="0.23" stroke-miterlimit="10"/>
<path d="M675.679 513.839C675.679 514.847 674.868 515.658 673.859 515.658C672.85 515.658 672.039 514.847 672.039 513.839C672.039 512.83 672.85 512.019 673.859 512.019C674.868 512.019 675.679 512.83 675.679 513.839Z" fill="#A7EBFF"/>
<path d="M658.393 284.863L660.232 287.414L661.834 284.566L658.393 284.863Z" fill="#A7EBFF"/>
<path d="M737.494 260.889C773.811 260.889 806.764 275.289 830.956 298.669C856.235 323.118 871.96 357.397 871.96 395.335" stroke="#A7EBFF" stroke-width="0.23" stroke-miterlimit="10"/>
<path d="M738.801 260.889C738.801 261.601 738.207 262.195 737.495 262.195C736.783 262.195 736.189 261.601 736.189 260.889C736.189 260.177 736.783 259.584 737.495 259.584C738.207 259.584 738.801 260.177 738.801 260.889Z" fill="#A7EBFF"/>
<path d="M870.635 393.871L871.94 396.759L873.503 393.871H870.635Z" fill="#A7EBFF"/>
<path d="M869.567 420.654C857.738 482.823 803.105 529.821 737.475 529.821" stroke="#A7EBFF" stroke-width="0.23" stroke-miterlimit="10"/>
<path d="M870.991 420.654C870.991 421.445 870.358 422.078 869.567 422.078C868.775 422.078 868.143 421.445 868.143 420.654C868.143 419.863 868.775 419.23 869.567 419.23C870.358 419.23 870.991 419.863 870.991 420.654Z" fill="#A7EBFF"/>
<path d="M737.494 528.694L735.477 529.821L737.494 530.83V528.694Z" fill="#A7EBFF"/>
<path d="M535.26 395.355H526.715C526.715 433.709 537.02 469.689 555 500.705L562.378 496.452C545.15 466.683 535.26 432.166 535.26 395.375V395.355ZM912.567 496.452C894.785 527.091 869.209 552.687 838.55 570.43L842.822 577.828C874.787 559.333 901.431 532.67 919.945 500.705L912.548 496.452H912.567ZM919.965 290.006L912.567 294.278C929.835 324.048 939.706 358.564 939.706 395.355H948.251C948.251 357.001 937.945 321.001 919.965 290.006ZM737.473 184.597V193.142C774.264 193.142 808.8 203.013 838.55 220.281L842.822 212.883C811.807 194.903 775.827 184.597 737.473 184.597ZM636.396 570.43L632.123 577.828C663.139 595.808 699.119 606.094 737.473 606.094V597.549C700.682 597.549 666.145 587.659 636.396 570.41V570.43ZM632.123 212.863C600.178 231.377 573.515 258.041 555 289.986L562.398 294.259C580.161 263.619 605.737 238.023 636.396 220.261L632.123 212.863Z" fill="#08C2FA"/>
<path d="M568.985 438.555L562.121 440.355C569.934 470.421 585.521 498.885 608.882 522.522C632.242 546.16 660.508 562.063 690.495 570.212L692.374 563.349C663.574 555.496 636.396 540.225 613.945 517.498C591.495 494.771 576.521 467.454 569.005 438.555H568.985ZM908.532 349.663C916.266 379.432 916.088 410.823 908.018 440.494C900.165 469.313 884.895 496.472 862.167 518.922L867.172 523.986C890.809 500.625 906.712 472.34 914.882 442.373C923.268 411.476 923.466 378.819 915.396 347.863L908.532 349.663ZM692.493 217.432C662.446 225.265 633.963 240.852 610.325 264.212L615.33 269.276C638.038 246.826 665.374 231.852 694.273 224.335C724.062 216.582 755.433 216.779 785.104 224.85L786.983 217.986C756.106 209.579 723.449 209.382 692.473 217.432H692.493Z" stroke="#A7EBFF" stroke-width="0.23" stroke-miterlimit="10"/>
<path d="M796.182 238.281L794.184 243.621C821.797 253.946 844.94 271.037 862.426 292.34L866.817 288.7C848.718 266.665 824.764 248.962 796.182 238.281ZM902.837 367.663L897.219 368.612C901.808 395.771 899.553 424.452 889.228 452.065L894.569 454.063C905.25 425.48 907.604 395.79 902.837 367.663ZM612.542 498.39L608.151 502.01C626.25 524.045 650.204 541.749 678.786 552.43L680.784 547.089C653.171 536.764 630.028 519.674 612.542 498.39ZM585.74 338.645L580.399 336.648C569.718 365.23 567.364 394.92 572.131 423.048L577.749 422.098C573.16 394.94 575.415 366.259 585.74 338.645ZM840.529 520.307C818.612 538.346 792.226 550.353 764.237 555.08L765.166 560.698C794.144 555.812 821.441 543.351 844.109 524.698L840.509 520.307H840.529ZM709.782 230.012C680.804 234.898 653.507 247.36 630.839 266.012L634.439 270.404C656.355 252.364 682.742 240.357 710.731 235.63L709.782 230.012Z" fill="#A7EBFF"/>
<path d="M662.921 266.191L665.058 269.889C686.381 257.527 711.126 250.446 737.493 250.446V246.173C710.354 246.173 684.877 253.472 662.921 266.191ZM809.928 520.821C788.605 533.184 763.86 540.265 737.493 540.265V544.538C764.631 544.538 790.108 537.239 812.064 524.52L809.948 520.841L809.928 520.821ZM612.027 467.79L608.328 469.927C621.423 492.536 640.313 511.426 662.921 524.52L665.058 520.821C643.082 508.083 624.746 489.766 612.027 467.79ZM882.383 395.355C882.383 421.722 875.302 446.467 862.939 467.79L866.618 469.907C879.356 447.971 886.636 422.474 886.636 395.336H882.363L882.383 395.355ZM812.044 266.21L809.928 269.889C831.904 282.628 850.22 300.944 862.939 322.92L866.638 320.784C853.543 298.175 834.653 279.285 812.044 266.191V266.21ZM608.328 320.784C595.59 342.72 588.311 368.197 588.311 395.355H592.583C592.583 368.988 599.664 344.243 612.027 322.92L608.348 320.804L608.328 320.784Z" fill="#08C2FA"/>
<path d="M902.74 560.61C994.007 469.343 994.007 321.37 902.74 230.103C811.473 138.837 663.5 138.837 572.234 230.103C480.967 321.37 480.967 469.343 572.234 560.61C663.5 651.876 811.473 651.876 902.74 560.61Z" stroke="#A7EBFF" stroke-width="0.23" stroke-miterlimit="10"/>
<path d="M508.419 351.107C510.178 351.107 511.604 349.681 511.604 347.922C511.604 346.164 510.178 344.738 508.419 344.738C506.66 344.738 505.234 346.164 505.234 347.922C505.234 349.681 506.66 351.107 508.419 351.107Z" fill="#A7EBFF"/>
<path d="M565.288 240.555C567.047 240.555 568.473 239.129 568.473 237.371C568.473 235.612 567.047 234.186 565.288 234.186C563.529 234.186 562.104 235.612 562.104 237.371C562.104 239.129 563.529 240.555 565.288 240.555Z" fill="#A7EBFF"/>
<path d="M800.731 173.481C802.49 173.481 803.916 172.055 803.916 170.296C803.916 168.537 802.49 167.111 800.731 167.111C798.973 167.111 797.547 168.537 797.547 170.296C797.547 172.055 798.973 173.481 800.731 173.481Z" fill="#A7EBFF"/>
<path d="M915.278 117.68C917.037 117.68 918.463 116.255 918.463 114.496C918.463 112.737 917.037 111.311 915.278 111.311C913.52 111.311 912.094 112.737 912.094 114.496C912.094 116.255 913.52 117.68 915.278 117.68Z" stroke="#A7EBFF" stroke-width="0.57" stroke-miterlimit="10"/>
<path d="M719.216 143.652C720.975 143.652 722.4 142.226 722.4 140.467C722.4 138.708 720.975 137.283 719.216 137.283C717.457 137.283 716.031 138.708 716.031 140.467C716.031 142.226 717.457 143.652 719.216 143.652Z" stroke="#A7EBFF" stroke-width="0.57" stroke-miterlimit="10"/>
<path d="M456.081 107.632C457.84 107.632 459.266 106.206 459.266 104.448C459.266 102.689 457.84 101.263 456.081 101.263C454.322 101.263 452.896 102.689 452.896 104.448C452.896 106.206 454.322 107.632 456.081 107.632Z" stroke="#A7EBFF" stroke-width="0.57" stroke-miterlimit="10"/>
<path d="M294.161 173.738C295.92 173.738 297.346 172.312 297.346 170.553C297.346 168.794 295.92 167.368 294.161 167.368C292.402 167.368 290.977 168.794 290.977 170.553C290.977 172.312 292.402 173.738 294.161 173.738Z" stroke="#A7EBFF" stroke-width="0.57" stroke-miterlimit="10"/>
<path d="M359.593 419.428C361.352 419.428 362.778 418.002 362.778 416.243C362.778 414.484 361.352 413.059 359.593 413.059C357.834 413.059 356.408 414.484 356.408 416.243C356.408 418.002 357.834 419.428 359.593 419.428Z" stroke="#A7EBFF" stroke-width="0.57" stroke-miterlimit="10"/>
<path d="M3.46974 610.683C5.22856 610.683 6.65433 609.257 6.65433 607.498C6.65433 605.739 5.22856 604.313 3.46974 604.313C1.71093 604.313 0.285156 605.739 0.285156 607.498C0.285156 609.257 1.71093 610.683 3.46974 610.683Z" stroke="#A7EBFF" stroke-width="0.57" stroke-miterlimit="10"/>
<path d="M356.942 704.025C358.701 704.025 360.127 702.6 360.127 700.841C360.127 699.082 358.701 697.656 356.942 697.656C355.184 697.656 353.758 699.082 353.758 700.841C353.758 702.6 355.184 704.025 356.942 704.025Z" stroke="#A7EBFF" stroke-width="0.57" stroke-miterlimit="10"/>
<path d="M613.688 651.014C615.447 651.014 616.873 649.589 616.873 647.83C616.873 646.071 615.447 644.645 613.688 644.645C611.93 644.645 610.504 646.071 610.504 647.83C610.504 649.589 611.93 651.014 613.688 651.014Z" stroke="#A7EBFF" stroke-width="0.57" stroke-miterlimit="10"/>
<path d="M1107.74 416.243C1109.5 416.243 1110.92 414.818 1110.92 413.059C1110.92 411.3 1109.5 409.874 1107.74 409.874C1105.98 409.874 1104.55 411.3 1104.55 413.059C1104.55 414.818 1105.98 416.243 1107.74 416.243Z" stroke="#A7EBFF" stroke-width="0.57" stroke-miterlimit="10"/>
<path d="M1304.41 436.913C1306.17 436.913 1307.6 435.487 1307.6 433.729C1307.6 431.97 1306.17 430.544 1304.41 430.544C1302.65 430.544 1301.23 431.97 1301.23 433.729C1301.23 435.487 1302.65 436.913 1304.41 436.913Z" stroke="#A7EBFF" stroke-width="0.57" stroke-miterlimit="10"/>
<path d="M964.489 263.322C966.248 263.322 967.674 261.897 967.674 260.138C967.674 258.379 966.248 256.953 964.489 256.953C962.73 256.953 961.305 258.379 961.305 260.138C961.305 261.897 962.73 263.322 964.489 263.322Z" stroke="#A7EBFF" stroke-width="0.57" stroke-miterlimit="10"/>
<path d="M1155.11 347.25C1155.11 352.314 1151 356.428 1145.94 356.428C1140.87 356.428 1136.76 352.314 1136.76 347.25C1136.76 342.186 1140.87 338.072 1145.94 338.072C1151 338.072 1155.11 342.186 1155.11 347.25Z" stroke="#A7EBFF" stroke-width="0.23" stroke-miterlimit="10"/>
<path d="M1164.29 664.129C1164.29 669.192 1160.18 673.307 1155.11 673.307C1150.05 673.307 1145.93 669.192 1145.93 664.129C1145.93 659.065 1150.05 654.951 1155.11 654.951C1160.18 654.951 1164.29 659.065 1164.29 664.129Z" stroke="#A7EBFF" stroke-width="0.57" stroke-miterlimit="10"/>
<path d="M503.772 182.856C508.84 182.856 512.95 178.747 512.95 173.678C512.95 168.609 508.84 164.5 503.772 164.5C498.703 164.5 494.594 168.609 494.594 173.678C494.594 178.747 498.703 182.856 503.772 182.856Z" stroke="#A7EBFF" stroke-width="0.57" stroke-miterlimit="10"/>
<path d="M378.483 450.522C378.483 455.586 374.369 459.7 369.305 459.7C364.241 459.7 360.127 455.586 360.127 450.522C360.127 445.458 364.241 441.344 369.305 441.344C374.369 441.344 378.483 445.458 378.483 450.522Z" stroke="#A7EBFF" stroke-width="0.57" stroke-miterlimit="10"/>
<path d="M1078.82 459.74C1078.82 464.804 1074.71 468.918 1069.64 468.918C1064.58 468.918 1060.46 464.804 1060.46 459.74C1060.46 454.676 1064.58 450.562 1069.64 450.562C1074.71 450.562 1078.82 454.676 1078.82 459.74Z" stroke="#A7EBFF" stroke-width="0.23" stroke-miterlimit="10"/>
<path d="M563.645 591.338C563.645 596.401 559.531 600.516 554.467 600.516C549.403 600.516 545.289 596.401 545.289 591.338C545.289 586.274 549.403 582.16 554.467 582.16C559.531 582.16 563.645 586.274 563.645 591.338Z" stroke="#A7EBFF" stroke-width="0.23" stroke-miterlimit="10"/>
<path d="M139.696 616.676C144.765 616.676 148.874 612.567 148.874 607.498C148.874 602.429 144.765 598.32 139.696 598.32C134.627 598.32 130.518 602.429 130.518 607.498C130.518 612.567 134.627 616.676 139.696 616.676Z" stroke="#A7EBFF" stroke-width="0.23" stroke-miterlimit="10"/>
<path d="M1319.01 233.791C1319.01 235.551 1317.59 236.975 1315.83 236.975C1314.07 236.975 1312.64 235.551 1312.64 233.791C1312.64 232.03 1314.07 230.606 1315.83 230.606C1317.59 230.606 1319.01 232.03 1319.01 233.791Z" stroke="#A7EBFF" stroke-width="0.57" stroke-miterlimit="10"/>
<path d="M857.204 186.476C858.963 186.476 860.389 185.05 860.389 183.292C860.389 181.533 858.963 180.107 857.204 180.107C855.445 180.107 854.02 181.533 854.02 183.292C854.02 185.05 855.445 186.476 857.204 186.476Z" stroke="#A7EBFF" stroke-width="0.57" stroke-miterlimit="10"/>
<path d="M1125.5 193.063C1127.26 193.063 1128.69 191.637 1128.69 189.878C1128.69 188.119 1127.26 186.694 1125.5 186.694C1123.74 186.694 1122.32 188.119 1122.32 189.878C1122.32 191.637 1123.74 193.063 1125.5 193.063Z" stroke="#A7EBFF" stroke-width="0.23" stroke-miterlimit="10"/>
<path d="M966.151 351.028C967.91 351.028 969.336 349.602 969.336 347.843C969.336 346.084 967.91 344.659 966.151 344.659C964.393 344.659 962.967 346.084 962.967 347.843C962.967 349.602 964.393 351.028 966.151 351.028Z" fill="#A7EBFF"/>
<path d="M967.993 437.329C969.752 437.329 971.178 435.903 971.178 434.144C971.178 432.385 969.752 430.96 967.993 430.96C966.234 430.96 964.809 432.385 964.809 434.144C964.809 435.903 966.234 437.329 967.993 437.329Z" fill="#A7EBFF"/>
<path d="M802.985 622.946C804.744 622.946 806.17 621.521 806.17 619.762C806.17 618.003 804.744 616.577 802.985 616.577C801.227 616.577 799.801 618.003 799.801 619.762C799.801 621.521 801.227 622.946 802.985 622.946Z" fill="#A7EBFF"/>
<path d="M579.55 570.212C581.309 570.212 582.734 568.787 582.734 567.028C582.734 565.269 581.309 563.843 579.55 563.843C577.791 563.843 576.365 565.269 576.365 567.028C576.365 568.787 577.791 570.212 579.55 570.212Z" fill="#A7EBFF"/>
<path d="M800.73 170.296L830.302 140.744H889.287L913.122 116.909" stroke="#A7EBFF" stroke-width="0.57" stroke-miterlimit="10"/>
<path d="M832.201 140.804C832.201 141.812 831.39 142.643 830.361 142.643C829.333 142.643 828.521 141.832 828.521 140.804C828.521 139.775 829.333 138.964 830.361 138.964C831.39 138.964 832.201 139.775 832.201 140.804Z" fill="#08C2FA"/>
<path d="M891.087 140.804C891.087 141.812 890.276 142.643 889.248 142.643C888.219 142.643 887.408 141.832 887.408 140.804C887.408 139.775 888.219 138.964 889.248 138.964C890.276 138.964 891.087 139.775 891.087 140.804Z" fill="#08C2FA"/>
<path d="M859.121 180.681L873.284 166.518H980.71L1008.6 138.628H1074.39L1123.33 187.564" stroke="#A7EBFF" stroke-width="0.57" stroke-miterlimit="10"/>
<path d="M875.125 166.518C875.125 167.527 874.314 168.357 873.285 168.357C872.256 168.357 871.445 167.546 871.445 166.518C871.445 165.489 872.256 164.678 873.285 164.678C874.314 164.678 875.125 165.489 875.125 166.518Z" fill="#08C2FA"/>
<path d="M1010.44 138.628C1010.44 139.637 1009.63 140.467 1008.6 140.467C1007.57 140.467 1006.76 139.656 1006.76 138.628C1006.76 137.599 1007.57 136.788 1008.6 136.788C1009.63 136.788 1010.44 137.599 1010.44 138.628Z" fill="#08C2FA"/>
<path d="M1280.11 347.25C1280.11 348.258 1279.3 349.089 1278.27 349.089C1277.24 349.089 1276.43 348.278 1276.43 347.25C1276.43 346.221 1277.24 345.41 1278.27 345.41C1279.3 345.41 1280.11 346.221 1280.11 347.25Z" fill="#08C2FA"/>
<path d="M984.074 166.518C984.074 168.397 982.551 169.94 980.652 169.94C978.754 169.94 977.23 168.417 977.23 166.518C977.23 164.619 978.754 163.096 980.652 163.096C982.551 163.096 984.074 164.619 984.074 166.518Z" fill="#08C2FA"/>
<path d="M1078.33 138.964C1078.33 140.843 1076.8 142.386 1074.9 142.386C1073.01 142.386 1071.48 140.863 1071.48 138.964C1071.48 137.065 1073.01 135.542 1074.9 135.542C1076.8 135.542 1078.33 137.065 1078.33 138.964Z" fill="#08C2FA"/>
<path d="M838.75 675.74C840.093 675.74 841.183 674.65 841.183 673.307C841.183 671.963 840.093 670.874 838.75 670.874C837.406 670.874 836.316 671.963 836.316 673.307C836.316 674.65 837.406 675.74 838.75 675.74Z" stroke="#A7EBFF" stroke-width="0.57" stroke-miterlimit="10"/>
<path d="M848.085 675.74C849.429 675.74 850.518 674.65 850.518 673.307C850.518 671.963 849.429 670.874 848.085 670.874C846.742 670.874 845.652 671.963 845.652 673.307C845.652 674.65 846.742 675.74 848.085 675.74Z" stroke="#A7EBFF" stroke-width="0.57" stroke-miterlimit="10"/>
<path d="M857.4 675.74C858.743 675.74 859.833 674.65 859.833 673.307C859.833 671.963 858.743 670.874 857.4 670.874C856.056 670.874 854.967 671.963 854.967 673.307C854.967 674.65 856.056 675.74 857.4 675.74Z" stroke="#A7EBFF" stroke-width="0.57" stroke-miterlimit="10"/>
<path d="M866.716 675.74C868.06 675.74 869.149 674.65 869.149 673.307C869.149 671.963 868.06 670.874 866.716 670.874C865.373 670.874 864.283 671.963 864.283 673.307C864.283 674.65 865.373 675.74 866.716 675.74Z" stroke="#A7EBFF" stroke-width="0.57" stroke-miterlimit="10"/>
<path d="M1114.21 226.215C1114.21 227.56 1113.12 228.648 1111.77 228.648C1110.43 228.648 1109.34 227.56 1109.34 226.215C1109.34 224.869 1110.43 223.782 1111.77 223.782C1113.12 223.782 1114.21 224.869 1114.21 226.215Z" stroke="#A7EBFF" stroke-width="0.57" stroke-miterlimit="10"/>
<path d="M1121.09 228.647C1122.43 228.647 1123.52 227.558 1123.52 226.215C1123.52 224.871 1122.43 223.782 1121.09 223.782C1119.75 223.782 1118.66 224.871 1118.66 226.215C1118.66 227.558 1119.75 228.647 1121.09 228.647Z" stroke="#A7EBFF" stroke-width="0.57" stroke-miterlimit="10"/>
<path d="M1130.41 228.648C1131.75 228.648 1132.84 227.558 1132.84 226.215C1132.84 224.871 1131.75 223.782 1130.41 223.782C1129.06 223.782 1127.97 224.871 1127.97 226.215C1127.97 227.558 1129.06 228.648 1130.41 228.648Z" stroke="#A7EBFF" stroke-width="0.57" stroke-miterlimit="10"/>
<path d="M1139.74 228.647C1141.09 228.647 1142.18 227.558 1142.18 226.215C1142.18 224.871 1141.09 223.782 1139.74 223.782C1138.4 223.782 1137.31 224.871 1137.31 226.215C1137.31 227.558 1138.4 228.647 1139.74 228.647Z" stroke="#A7EBFF" stroke-width="0.57" stroke-miterlimit="10"/>
<path d="M1162.47 226.59C1182.75 206.313 1182.75 173.437 1162.47 153.16C1142.2 132.883 1109.32 132.883 1089.04 153.16C1068.77 173.437 1068.77 206.313 1089.04 226.59C1109.32 246.868 1142.2 246.868 1162.47 226.59Z" stroke="#A7EBFF" stroke-width="0.57" stroke-miterlimit="10"/>
<path d="M1142.25 206.366C1151.36 197.258 1151.36 182.492 1142.25 173.385C1133.14 164.278 1118.38 164.278 1109.27 173.385C1100.16 182.492 1100.16 197.258 1109.27 206.366C1118.38 215.473 1133.14 215.473 1142.25 206.366Z" stroke="#A7EBFF" stroke-width="0.57" stroke-miterlimit="10"/>
<path d="M293.069 667.096C293.069 668.441 291.981 669.529 290.636 669.529C289.291 669.529 288.203 668.441 288.203 667.096C288.203 665.751 289.291 664.663 290.636 664.663C291.981 664.663 293.069 665.751 293.069 667.096Z" stroke="#A7EBFF" stroke-width="0.57" stroke-miterlimit="10"/>
<path d="M302.425 667.096C302.425 668.441 301.337 669.529 299.992 669.529C298.647 669.529 297.559 668.441 297.559 667.096C297.559 665.751 298.647 664.663 299.992 664.663C301.337 664.663 302.425 665.751 302.425 667.096Z" stroke="#A7EBFF" stroke-width="0.57" stroke-miterlimit="10"/>
<path d="M311.762 667.096C311.762 668.441 310.674 669.529 309.329 669.529C307.984 669.529 306.896 668.441 306.896 667.096C306.896 665.751 307.984 664.663 309.329 664.663C310.674 664.663 311.762 665.751 311.762 667.096Z" stroke="#A7EBFF" stroke-width="0.57" stroke-miterlimit="10"/>
<path d="M321.118 667.096C321.118 668.441 320.03 669.529 318.685 669.529C317.34 669.529 316.252 668.441 316.252 667.096C316.252 665.751 317.34 664.663 318.685 664.663C320.03 664.663 321.118 665.751 321.118 667.096Z" stroke="#A7EBFF" stroke-width="0.57" stroke-miterlimit="10"/>
<path d="M304.661 682.722C333.425 682.722 356.743 659.405 356.743 630.641C356.743 601.877 333.425 578.56 304.661 578.56C275.898 578.56 252.58 601.877 252.58 630.641C252.58 659.405 275.898 682.722 304.661 682.722Z" stroke="#A7EBFF" stroke-width="0.57" stroke-miterlimit="10"/>
<path d="M304.662 654.041C317.585 654.041 328.062 643.564 328.062 630.641C328.062 617.717 317.585 607.241 304.662 607.241C291.738 607.241 281.262 617.717 281.262 630.641C281.262 643.564 291.738 654.041 304.662 654.041Z" stroke="#A7EBFF" stroke-width="0.57" stroke-miterlimit="10"/>
<path d="M1309.6 60.5949C1309.6 61.5048 1308.85 62.2564 1307.94 62.2564C1307.03 62.2564 1306.28 61.5048 1306.28 60.5949C1306.28 59.685 1307.03 58.9333 1307.94 58.9333C1308.85 58.9333 1309.6 59.685 1309.6 60.5949Z" fill="#A7EBFF"/>
<path d="M1315.97 60.5949C1315.97 61.5048 1315.21 62.2564 1314.3 62.2564C1313.39 62.2564 1312.64 61.5048 1312.64 60.5949C1312.64 59.685 1313.39 58.9333 1314.3 58.9333C1315.21 58.9333 1315.97 59.685 1315.97 60.5949Z" fill="#A7EBFF"/>
<path d="M1322.33 60.5949C1322.33 61.5048 1321.58 62.2564 1320.67 62.2564C1319.76 62.2564 1319.01 61.5048 1319.01 60.5949C1319.01 59.685 1319.76 58.9333 1320.67 58.9333C1321.58 58.9333 1322.33 59.685 1322.33 60.5949Z" fill="#A7EBFF"/>
<path d="M1328.71 60.5949C1328.71 61.5048 1327.95 62.2564 1327.04 62.2564C1326.13 62.2564 1325.38 61.5048 1325.38 60.5949C1325.38 59.685 1326.13 58.9333 1327.04 58.9333C1327.95 58.9333 1328.71 59.685 1328.71 60.5949Z" fill="#A7EBFF"/>
<path d="M1317.49 71.2168C1337.08 71.2168 1352.96 55.3382 1352.96 35.7509C1352.96 16.1636 1337.08 0.285004 1317.49 0.285004C1297.9 0.285004 1282.02 16.1636 1282.02 35.7509C1282.02 55.3382 1297.9 71.2168 1317.49 71.2168Z" stroke="#A7EBFF" stroke-width="0.57" stroke-miterlimit="10"/>
<path d="M1317.49 51.6938C1326.29 51.6938 1333.43 44.556 1333.43 35.751C1333.43 26.946 1326.29 19.8081 1317.49 19.8081C1308.68 19.8081 1301.55 26.946 1301.55 35.751C1301.55 44.556 1308.68 51.6938 1317.49 51.6938Z" stroke="#A7EBFF" stroke-width="0.57" stroke-miterlimit="10"/>
<path d="M237.863 310.894C237.863 309.984 238.615 309.232 239.525 309.232C240.435 309.232 241.186 309.984 241.186 310.894C241.186 311.804 240.435 312.555 239.525 312.555C238.615 312.555 237.863 311.804 237.863 310.894Z" fill="#A7EBFF"/>
<path d="M231.494 310.894C231.494 309.984 232.246 309.232 233.156 309.232C234.066 309.232 234.817 309.984 234.817 310.894C234.817 311.804 234.066 312.555 233.156 312.555C232.246 312.555 231.494 311.804 231.494 310.894Z" fill="#A7EBFF"/>
<path d="M225.125 310.894C225.125 309.984 225.877 309.232 226.786 309.232C227.696 309.232 228.448 309.984 228.448 310.894C228.448 311.804 227.696 312.555 226.786 312.555C225.877 312.555 225.125 311.804 225.125 310.894Z" fill="#A7EBFF"/>
<path d="M218.754 310.894C218.754 309.984 219.506 309.232 220.415 309.232C221.325 309.232 222.077 309.984 222.077 310.894C222.077 311.804 221.325 312.555 220.415 312.555C219.506 312.555 218.754 311.804 218.754 310.894Z" fill="#A7EBFF"/>
<path d="M229.972 371.204C249.559 371.204 265.438 355.325 265.438 335.738C265.438 316.15 249.559 300.272 229.972 300.272C210.385 300.272 194.506 316.15 194.506 335.738C194.506 355.325 210.385 371.204 229.972 371.204Z" stroke="#A7EBFF" stroke-width="0.57" stroke-miterlimit="10"/>
<path d="M238.914 348.912C246.205 343.976 248.114 334.063 243.177 326.772C238.241 319.481 228.329 317.572 221.038 322.509C213.747 327.445 211.838 337.357 216.774 344.648C221.711 351.94 231.623 353.848 238.914 348.912Z" stroke="#A7EBFF" stroke-width="0.57" stroke-miterlimit="10"/>
<path d="M1131.14 138.232C1148.96 76.6365 1205.79 31.5969 1273.12 31.5969C1276.11 31.5969 1279.08 31.6761 1282.02 31.8541" stroke="#A7EBFF" stroke-width="0.57" stroke-miterlimit="10"/>
<path d="M966.152 347.843H1056.71L1115.87 288.7H1184.86L1239.79 233.79H1312.64" stroke="#A7EBFF" stroke-width="0.57" stroke-miterlimit="10"/>
<path d="M1058.55 347.843C1058.55 348.852 1057.74 349.683 1056.71 349.683C1055.68 349.683 1054.87 348.872 1054.87 347.843C1054.87 346.815 1055.68 346.004 1056.71 346.004C1057.74 346.004 1058.55 346.815 1058.55 347.843Z" fill="#08C2FA"/>
<path d="M1241.61 233.79C1241.61 234.799 1240.8 235.63 1239.77 235.63C1238.74 235.63 1237.93 234.819 1237.93 233.79C1237.93 232.762 1238.74 231.951 1239.77 231.951C1240.8 231.951 1241.61 232.762 1241.61 233.79Z" fill="#08C2FA"/>
<path d="M1188.42 287.414C1188.42 289.294 1186.9 290.836 1185 290.836C1183.1 290.836 1181.58 289.313 1181.58 287.414C1181.58 285.516 1183.1 283.992 1185 283.992C1186.9 283.992 1188.42 285.516 1188.42 287.414Z" fill="#08C2FA"/>
<path d="M957.191 315.502H1114.21L1145.95 347.25H1276.42" stroke="#A7EBFF" stroke-width="0.23" stroke-miterlimit="10"/>
<path d="M887.428 216.087H1049.57L1087.41 253.927V280.254H984.074L966.37 262.551" stroke="#A7EBFF" stroke-width="0.23" stroke-miterlimit="10"/>
<path d="M1089.23 280.254C1089.23 281.263 1088.42 282.094 1087.39 282.094C1086.36 282.094 1085.55 281.283 1085.55 280.254C1085.55 279.226 1086.36 278.415 1087.39 278.415C1088.42 278.415 1089.23 279.226 1089.23 280.254Z" fill="#08C2FA"/>
<path d="M1052.99 216.087C1052.99 217.966 1051.47 219.509 1049.57 219.509C1047.67 219.509 1046.14 217.986 1046.14 216.087C1046.14 214.188 1047.67 212.665 1049.57 212.665C1051.47 212.665 1052.99 214.188 1052.99 216.087Z" fill="#08C2FA"/>
<path d="M1164.17 343.689L1167.06 342.384L1164.17 340.841V343.689Z" fill="#A7EBFF"/>
<path d="M1169.63 343.689L1172.52 342.384L1169.63 340.841V343.689Z" fill="#A7EBFF"/>
<path d="M1175.09 343.689L1177.98 342.384L1175.09 340.841V343.689Z" fill="#A7EBFF"/>
<path d="M1180.55 343.689L1183.44 342.384L1180.55 340.841V343.689Z" fill="#A7EBFF"/>
<path d="M1014.48 135.542L1018.97 133.525L1014.48 131.131V135.542Z" fill="#08C2FA"/>
<path d="M1022.92 135.542L1027.39 133.525L1022.92 131.131V135.542Z" fill="#08C2FA"/>
<path d="M1031.37 135.542L1035.84 133.525L1031.37 131.131V135.542Z" fill="#08C2FA"/>
<path d="M1039.81 135.542L1044.28 133.525L1039.81 131.131V135.542Z" fill="#08C2FA"/>
<path d="M398.521 168.753L403.012 166.736L398.521 164.342V168.753Z" fill="#08C2FA"/>
<path d="M406.967 168.753L411.437 166.736L406.967 164.342V168.753Z" fill="#08C2FA"/>
<path d="M415.414 168.753L419.884 166.736L415.414 164.342V168.753Z" fill="#08C2FA"/>
<path d="M423.859 168.753L428.33 166.736L423.859 164.342V168.753Z" fill="#08C2FA"/>
<path d="M132.537 684.186L140.271 680.685L132.537 676.531V684.186Z" fill="#08C2FA"/>
<path d="M147.135 684.186L154.869 680.685L147.135 676.531V684.186Z" fill="#08C2FA"/>
<path d="M161.73 684.186L169.464 680.685L161.73 676.531V684.186Z" fill="#08C2FA"/>
<path d="M176.328 684.186L184.062 680.685L176.328 676.531V684.186Z" fill="#08C2FA"/>
<path d="M975.232 584.949L979.703 582.931L975.232 580.518V584.949Z" fill="#08C2FA"/>
<path d="M983.678 584.949L988.148 582.931L983.678 580.518V584.949Z" fill="#08C2FA"/>
<path d="M992.123 584.949L996.593 582.931L992.123 580.518V584.949Z" fill="#08C2FA"/>
<path d="M1000.57 584.949L1005.04 582.931L1000.57 580.518V584.949Z" fill="#08C2FA"/>
<path d="M1250.2 228.568H1248.36V231.951H1250.2V228.568Z" fill="#A7EBFF"/>
<path d="M1253.34 228.568H1251.5V231.951H1253.34V228.568Z" fill="#A7EBFF"/>
<path d="M1256.51 228.568H1254.67V231.951H1256.51V228.568Z" fill="#A7EBFF"/>
<path d="M1259.65 228.568H1257.81V231.951H1259.65V228.568Z" fill="#A7EBFF"/>
<path d="M1262.8 228.568H1260.96V231.951H1262.8V228.568Z" fill="#A7EBFF"/>
<path d="M1105.51 461.797H1103.67V465.179H1105.51V461.797Z" fill="#A7EBFF"/>
<path d="M1108.67 461.797H1106.83V465.179H1108.67V461.797Z" fill="#A7EBFF"/>
<path d="M1111.82 461.797H1109.98V465.179H1111.82V461.797Z" fill="#A7EBFF"/>
<path d="M1114.96 461.797H1113.12V465.179H1114.96V461.797Z" fill="#A7EBFF"/>
<path d="M1118.12 461.797H1116.29V465.179H1118.12V461.797Z" fill="#A7EBFF"/>
<path d="M1242.62 572.329H1239.22V578.619H1242.62V572.329Z" fill="#A7EBFF"/>
<path d="M1248.46 572.329H1245.05V578.619H1248.46V572.329Z" fill="#A7EBFF"/>
<path d="M1254.31 572.329H1250.91V578.619H1254.31V572.329Z" fill="#A7EBFF"/>
<path d="M1260.15 572.329H1256.75V578.619H1260.15V572.329Z" fill="#A7EBFF"/>
<path d="M1266 572.329H1262.6V578.619H1266V572.329Z" fill="#A7EBFF"/>
<path d="M437.013 618.456H433.611V624.746H437.013V618.456Z" fill="#A7EBFF"/>
<path d="M442.849 618.456H439.447V624.746H442.849V618.456Z" fill="#A7EBFF"/>
<path d="M448.703 618.456H445.301V624.746H448.703V618.456Z" fill="#A7EBFF"/>
<path d="M454.539 618.456H451.137V624.746H454.539V618.456Z" fill="#A7EBFF"/>
<path d="M460.392 618.456H456.99V624.746H460.392V618.456Z" fill="#A7EBFF"/>
<path d="M435.31 284.27H431.908V290.56H435.31V284.27Z" fill="#A7EBFF"/>
<path d="M441.145 284.27H437.742V290.56H441.145V284.27Z" fill="#A7EBFF"/>
<path d="M447 284.27H443.598V290.56H447V284.27Z" fill="#A7EBFF"/>
<path d="M452.838 284.27H449.436V290.56H452.838V284.27Z" fill="#A7EBFF"/>
<path d="M458.691 284.27H455.289V290.56H458.691V284.27Z" fill="#A7EBFF"/>
<path d="M1283.21 347.25H1287.44" stroke="#A7EBFF" stroke-width="0.23" stroke-miterlimit="10"/>
<path d="M1291.24 345.074H1287.36V348.951H1291.24V345.074Z" stroke="#A7EBFF" stroke-width="0.23" stroke-miterlimit="10"/>
<path d="M1291.24 347.25H1295.47" stroke="#A7EBFF" stroke-width="0.23" stroke-miterlimit="10"/>
<path d="M1299.29 345.074H1295.42V348.951H1299.29V345.074Z" stroke="#A7EBFF" stroke-width="0.23" stroke-miterlimit="10"/>
<path d="M1299.29 347.25H1303.52" stroke="#A7EBFF" stroke-width="0.23" stroke-miterlimit="10"/>
<path d="M1307.32 345.074H1303.44V348.951H1307.32V345.074Z" stroke="#A7EBFF" stroke-width="0.23" stroke-miterlimit="10"/>
<path d="M1307.32 347.25H1311.56" stroke="#A7EBFF" stroke-width="0.23" stroke-miterlimit="10"/>
<path d="M1315.37 347.25H1319.61" stroke="#A7EBFF" stroke-width="0.23" stroke-miterlimit="10"/>
<path d="M1315.37 345.074H1311.5V348.951H1315.37V345.074Z" stroke="#A7EBFF" stroke-width="0.23" stroke-miterlimit="10"/>
<path d="M955.213 710.335H962.986" stroke="#A7EBFF" stroke-width="0.57" stroke-miterlimit="10"/>
<path d="M970.012 706.3H962.871V713.441H970.012V706.3Z" stroke="#A7EBFF" stroke-width="0.57" stroke-miterlimit="10"/>
<path d="M970.01 710.336H977.803" stroke="#A7EBFF" stroke-width="0.57" stroke-miterlimit="10"/>
<path d="M984.805 706.301H977.664V713.441H984.805V706.301Z" stroke="#A7EBFF" stroke-width="0.57" stroke-miterlimit="10"/>
<path d="M984.805 710.335H992.598" stroke="#A7EBFF" stroke-width="0.57" stroke-miterlimit="10"/>
<path d="M999.602 706.301H992.461V713.441H999.602V706.301Z" stroke="#A7EBFF" stroke-width="0.57" stroke-miterlimit="10"/>
<path d="M999.6 710.335H1007.39" stroke="#A7EBFF" stroke-width="0.57" stroke-miterlimit="10"/>
<path d="M1014.39 710.335H1022.19" stroke="#A7EBFF" stroke-width="0.57" stroke-miterlimit="10"/>
<path d="M1014.39 706.3H1007.25V713.441H1014.39V706.3Z" stroke="#A7EBFF" stroke-width="0.57" stroke-miterlimit="10"/>
<path d="M182.975 512.355H191.856" stroke="#A7EBFF" stroke-width="0.57" stroke-miterlimit="10"/>
<path d="M198.859 508.34H191.719V515.481H198.859V508.34Z" stroke="#A7EBFF" stroke-width="0.57" stroke-miterlimit="10"/>
<path d="M198.861 512.355H206.655" stroke="#A7EBFF" stroke-width="0.57" stroke-miterlimit="10"/>
<path d="M213.656 508.34H206.516V515.48H213.656V508.34Z" stroke="#A7EBFF" stroke-width="0.57" stroke-miterlimit="10"/>
<path d="M213.654 512.355H221.448" stroke="#A7EBFF" stroke-width="0.57" stroke-miterlimit="10"/>
<path d="M228.469 508.34H221.328V515.48H228.469V508.34Z" stroke="#A7EBFF" stroke-width="0.57" stroke-miterlimit="10"/>
<path d="M228.471 512.355H236.244" stroke="#A7EBFF" stroke-width="0.57" stroke-miterlimit="10"/>
<path d="M243.266 512.355H251.059" stroke="#A7EBFF" stroke-width="0.57" stroke-miterlimit="10"/>
<path d="M243.266 508.34H236.125V515.48H243.266V508.34Z" stroke="#A7EBFF" stroke-width="0.57" stroke-miterlimit="10"/>
<path d="M135.76 131.507H143.553" stroke="#A7EBFF" stroke-width="0.57" stroke-miterlimit="10"/>
<path d="M150.576 127.472H143.436V134.612H150.576V127.472Z" stroke="#A7EBFF" stroke-width="0.57" stroke-miterlimit="10"/>
<path d="M150.578 131.507H158.352" stroke="#A7EBFF" stroke-width="0.57" stroke-miterlimit="10"/>
<path d="M165.373 127.472H158.232V134.612H165.373V127.472Z" stroke="#A7EBFF" stroke-width="0.57" stroke-miterlimit="10"/>
<path d="M165.371 131.507H173.165" stroke="#A7EBFF" stroke-width="0.57" stroke-miterlimit="10"/>
<path d="M180.168 127.472H173.027V134.612H180.168V127.472Z" stroke="#A7EBFF" stroke-width="0.57" stroke-miterlimit="10"/>
<path d="M180.168 131.507H187.961" stroke="#A7EBFF" stroke-width="0.57" stroke-miterlimit="10"/>
<path d="M194.963 131.507H202.756" stroke="#A7EBFF" stroke-width="0.57" stroke-miterlimit="10"/>
<path d="M194.963 127.472H187.822V134.612H194.963V127.472Z" stroke="#A7EBFF" stroke-width="0.57" stroke-miterlimit="10"/>
<path d="M488.125 684.186H493.782" stroke="#A7EBFF" stroke-width="0.41" stroke-miterlimit="10"/>
<path d="M498.864 681.259H493.682V686.441H498.864V681.259Z" stroke="#A7EBFF" stroke-width="0.41" stroke-miterlimit="10"/>
<path d="M498.885 684.186H504.542" stroke="#A7EBFF" stroke-width="0.41" stroke-miterlimit="10"/>
<path d="M509.628 681.259H504.445V686.441H509.628V681.259Z" stroke="#A7EBFF" stroke-width="0.41" stroke-miterlimit="10"/>
<path d="M509.627 684.186H515.304" stroke="#A7EBFF" stroke-width="0.41" stroke-miterlimit="10"/>
<path d="M520.387 681.259H515.205V686.441H520.387V681.259Z" stroke="#A7EBFF" stroke-width="0.41" stroke-miterlimit="10"/>
<path d="M520.385 684.186H526.042" stroke="#A7EBFF" stroke-width="0.41" stroke-miterlimit="10"/>
<path d="M531.146 684.186H536.804" stroke="#A7EBFF" stroke-width="0.41" stroke-miterlimit="10"/>
<path d="M531.145 681.259H525.963V686.441H531.145V681.259Z" stroke="#A7EBFF" stroke-width="0.41" stroke-miterlimit="10"/>
<path d="M969.219 434.659H977.922" stroke="#A7EBFF" stroke-width="0.47" stroke-miterlimit="10"/>
<path d="M985.774 430.149H977.783V438.14H985.774V430.149Z" stroke="#A7EBFF" stroke-width="0.47" stroke-miterlimit="10"/>
<path d="M985.775 434.659H994.499" stroke="#A7EBFF" stroke-width="0.47" stroke-miterlimit="10"/>
<path d="M1002.35 430.149H994.361V438.14H1002.35V430.149Z" stroke="#A7EBFF" stroke-width="0.47" stroke-miterlimit="10"/>
<path d="M1002.35 434.659H1011.07" stroke="#A7EBFF" stroke-width="0.47" stroke-miterlimit="10"/>
<path d="M1018.91 430.149H1010.92V438.14H1018.91V430.149Z" stroke="#A7EBFF" stroke-width="0.47" stroke-miterlimit="10"/>
<path d="M1018.91 434.659H1027.63" stroke="#A7EBFF" stroke-width="0.47" stroke-miterlimit="10"/>
<path d="M1035.48 434.659H1044.21L1069.29 459.74H1119.55L1185.22 394.07H1232.04" stroke="#A7EBFF" stroke-width="0.47" stroke-miterlimit="10"/>
<path d="M1035.48 430.149H1027.49V438.14H1035.48V430.149Z" stroke="#A7EBFF" stroke-width="0.47" stroke-miterlimit="10"/>
<path d="M1188.62 394.069C1188.62 395.949 1187.1 397.491 1185.2 397.491C1183.3 397.491 1181.78 395.968 1181.78 394.069C1181.78 392.171 1183.3 390.647 1185.2 390.647C1187.1 390.647 1188.62 392.171 1188.62 394.069Z" fill="#08C2FA"/>
<path d="M1232.04 396.404L1236.74 394.267L1232.04 391.755V396.404Z" fill="#A7EBFF"/>
<path d="M1435.58 660.113L1440.29 657.977L1435.58 655.465V660.113Z" fill="#A7EBFF"/>
<path d="M1401.44 264.291L1406.15 262.155L1401.44 259.623V264.291Z" fill="#A7EBFF"/>
<path d="M799.801 619.762H948.251L992.618 664.129H1155.11L1237.87 581.388H1280.1L1356.53 657.839H1435.58" stroke="#A7EBFF" stroke-width="0.57" stroke-miterlimit="10"/>
<path d="M932.902 523.59H1018.91L1045.87 496.63H1091.32L1143.78 549.067H1206.58" stroke="#A7EBFF" stroke-width="0.57" stroke-miterlimit="10"/>
<path d="M900.818 562.399H943.821L969.357 587.915H1087.11L1104.81 570.212L1080.72 546.12H1031.31L1014.97 562.439" stroke="#A7EBFF" stroke-width="0.23" stroke-miterlimit="10"/>
<path d="M861.377 619.762L887.507 645.891H937.076" stroke="#A7EBFF" stroke-width="0.23" stroke-miterlimit="10"/>
<path d="M774.699 626.111L830.44 681.852H927.106L955.688 710.434" stroke="#A7EBFF" stroke-width="0.57" stroke-miterlimit="10"/>
<path d="M1319.01 233.79H1334.84L1363.02 261.957H1401.44" stroke="#A7EBFF" stroke-width="0.57" stroke-miterlimit="10"/>
<path d="M1164.29 664.129H1218.68" stroke="#A7EBFF" stroke-width="0.57" stroke-miterlimit="10"/>
<path d="M1218.69 666.463L1223.39 664.346L1218.69 661.814V666.463Z" fill="#A7EBFF"/>
<path d="M1145.95 549.067C1145.95 550.076 1145.14 550.907 1144.12 550.907C1143.09 550.907 1142.28 550.096 1142.28 549.067C1142.28 548.039 1143.09 547.228 1144.12 547.228C1145.14 547.228 1145.95 548.039 1145.95 549.067Z" fill="#08C2FA"/>
<path d="M1048.2 496.63C1048.2 497.639 1047.39 498.469 1046.36 498.469C1045.33 498.469 1044.52 497.658 1044.52 496.63C1044.52 495.601 1045.33 494.79 1046.36 494.79C1047.39 494.79 1048.2 495.601 1048.2 496.63Z" fill="#08C2FA"/>
<path d="M1016.65 562.538C1016.65 563.546 1015.84 564.377 1014.81 564.377C1013.78 564.377 1012.97 563.566 1012.97 562.538C1012.97 561.509 1013.78 560.698 1014.81 560.698C1015.84 560.698 1016.65 561.509 1016.65 562.538Z" fill="#08C2FA"/>
<path d="M938.896 645.891C938.896 646.9 938.085 647.731 937.056 647.731C936.028 647.731 935.217 646.92 935.217 645.891C935.217 644.863 936.028 644.052 937.056 644.052C938.085 644.052 938.896 644.863 938.896 645.891Z" fill="#08C2FA"/>
<path d="M950.07 619.762C950.07 620.77 949.259 621.601 948.23 621.601C947.202 621.601 946.391 620.79 946.391 619.762C946.391 618.733 947.202 617.922 948.23 617.922C949.259 617.922 950.07 618.733 950.07 619.762Z" fill="#08C2FA"/>
<path d="M1082.98 546.12C1082.98 547.129 1082.16 547.959 1081.14 547.959C1080.11 547.959 1079.3 547.148 1079.3 546.12C1079.3 545.091 1080.11 544.28 1081.14 544.28C1082.16 544.28 1082.98 545.091 1082.98 546.12Z" fill="#08C2FA"/>
<path d="M1020.57 522.68C1020.57 523.689 1019.76 524.52 1018.73 524.52C1017.7 524.52 1016.89 523.709 1016.89 522.68C1016.89 521.652 1017.7 520.841 1018.73 520.841C1019.76 520.841 1020.57 521.652 1020.57 522.68Z" fill="#08C2FA"/>
<path d="M1209.98 549.067C1209.98 550.946 1208.46 552.489 1206.56 552.489C1204.66 552.489 1203.14 550.966 1203.14 549.067C1203.14 547.168 1204.66 545.645 1206.56 545.645C1208.46 545.645 1209.98 547.168 1209.98 549.067Z" fill="#08C2FA"/>
<path d="M1095.04 496.63C1095.04 498.509 1093.52 500.052 1091.62 500.052C1089.72 500.052 1088.2 498.529 1088.2 496.63C1088.2 494.731 1089.72 493.208 1091.62 493.208C1093.52 493.208 1095.04 494.731 1095.04 496.63Z" fill="#08C2FA"/>
<path d="M936.305 524.52C936.305 526.399 934.782 527.942 932.883 527.942C930.984 527.942 929.461 526.419 929.461 524.52C929.461 522.621 930.984 521.098 932.883 521.098C934.782 521.098 936.305 522.621 936.305 524.52Z" fill="#08C2FA"/>
<path d="M1089.82 587.916C1089.82 589.795 1088.3 591.338 1086.4 591.338C1084.5 591.338 1082.98 589.815 1082.98 587.916C1082.98 586.017 1084.5 584.494 1086.4 584.494C1088.3 584.494 1089.82 586.017 1089.82 587.916Z" fill="#08C2FA"/>
<path d="M890.078 645.891C890.078 647.771 888.555 649.313 886.656 649.313C884.757 649.313 883.234 647.79 883.234 645.891C883.234 643.993 884.757 642.469 886.656 642.469C888.555 642.469 890.078 643.993 890.078 645.891Z" fill="#08C2FA"/>
<path d="M929.678 681.852C929.678 683.731 928.155 685.274 926.256 685.274C924.357 685.274 922.834 683.751 922.834 681.852C922.834 679.953 924.357 678.43 926.256 678.43C928.155 678.43 929.678 679.953 929.678 681.852Z" fill="#08C2FA"/>
<path d="M996.041 664.129C996.041 666.008 994.518 667.551 992.619 667.551C990.72 667.551 989.197 666.028 989.197 664.129C989.197 662.23 990.72 660.707 992.619 660.707C994.518 660.707 996.041 662.23 996.041 664.129Z" fill="#08C2FA"/>
<path d="M947.223 562.538C947.223 564.417 945.7 565.96 943.801 565.96C941.902 565.96 940.379 564.436 940.379 562.538C940.379 560.639 941.902 559.116 943.801 559.116C945.7 559.116 947.223 560.639 947.223 562.538Z" stroke="#A7EBFF" stroke-width="0.57" stroke-miterlimit="10"/>
<path d="M1385.73 624.826C1385.73 631.729 1380.13 637.347 1373.21 637.347C1366.29 637.347 1360.69 631.749 1360.69 624.826C1360.69 617.903 1366.29 612.305 1373.21 612.305C1380.13 612.305 1385.73 617.903 1385.73 624.826Z" stroke="#A7EBFF" stroke-width="0.57" stroke-miterlimit="10"/>
<path d="M1373.23 603.621V645.951" stroke="#A7EBFF" stroke-width="0.57" stroke-miterlimit="10"/>
<path d="M150.298 434.164C150.298 441.067 144.7 446.685 137.777 446.685C130.854 446.685 125.256 441.087 125.256 434.164C125.256 427.241 130.854 421.643 137.777 421.643C144.7 421.643 150.298 427.241 150.298 434.164Z" stroke="#A7EBFF" stroke-width="0.23" stroke-miterlimit="10"/>
<path d="M579.549 567.028L554.724 591.852H502.149L464.289 629.711H328.34" stroke="#A7EBFF" stroke-width="0.57" stroke-miterlimit="10"/>
<path d="M565.288 237.371L502.129 174.193H393.793L366.694 147.074H218.283L202.756 131.566" stroke="#A7EBFF" stroke-width="0.57" stroke-miterlimit="10"/>
<path d="M511.207 336.687L474.258 299.757H362.183L315.66 253.215H390.41L406.768 269.573" stroke="#A7EBFF" stroke-width="0.23" stroke-miterlimit="10"/>
<path d="M508.419 347.922H413.434L381.43 379.927H274.162L229.973 335.738" stroke="#A7EBFF" stroke-width="0.57" stroke-miterlimit="10"/>
<path d="M503.771 390.648H425.401L394.564 359.83H190.63L137.777 412.683V455.289" stroke="#A7EBFF" stroke-width="0.23" stroke-miterlimit="10"/>
<path d="M508.419 450.522H369.186L307.333 512.375H248.566" stroke="#A7EBFF" stroke-width="0.57" stroke-miterlimit="10"/>
<path d="M536.012 513.839H472.794L436.181 550.472H369.186" stroke="#A7EBFF" stroke-width="0.23" stroke-miterlimit="10"/>
<path d="M281.677 629.711H229.972L189.739 669.944H99.5808L63.2051 633.568" stroke="#A7EBFF" stroke-width="0.57" stroke-miterlimit="10"/>
<path d="M673.881 621.581L627.497 667.966H553.321L510.437 710.849H425.402" stroke="#A7EBFF" stroke-width="0.57" stroke-miterlimit="10"/>
<path d="M716.033 140.467H598.083L562.064 104.448H459.266" stroke="#A7EBFF" stroke-width="0.23" stroke-miterlimit="10"/>
<path d="M206.176 131.566C206.176 133.445 204.653 134.988 202.754 134.988C200.855 134.988 199.332 133.465 199.332 131.566C199.332 129.667 200.855 128.144 202.754 128.144C204.653 128.144 206.176 129.667 206.176 131.566Z" fill="#08C2FA"/>
<path d="M507.192 173.678C507.192 175.558 505.668 177.1 503.77 177.1C501.871 177.1 500.348 175.577 500.348 173.678C500.348 171.78 501.871 170.257 503.77 170.257C505.668 170.257 507.192 171.78 507.192 173.678Z" fill="#08C2FA"/>
<path d="M137.72 459.245C138.813 459.245 139.698 458.36 139.698 457.267C139.698 456.175 138.813 455.289 137.72 455.289C136.628 455.289 135.742 456.175 135.742 457.267C135.742 458.36 136.628 459.245 137.72 459.245Z" fill="#A7EBFF"/>
<path d="M368.849 147.311C368.849 148.32 368.038 149.151 367.01 149.151C365.981 149.151 365.17 148.34 365.17 147.311C365.17 146.283 365.981 145.472 367.01 145.472C368.038 145.472 368.849 146.283 368.849 147.311Z" fill="#08C2FA"/>
<path d="M408.708 269.593C408.708 270.601 407.897 271.432 406.869 271.432C405.84 271.432 405.029 270.621 405.029 269.593C405.029 268.564 405.84 267.753 406.869 267.753C407.897 267.753 408.708 268.564 408.708 269.593Z" fill="#08C2FA"/>
<path d="M476.333 299.5C476.333 300.509 475.523 301.34 474.494 301.34C473.465 301.34 472.654 300.529 472.654 299.5C472.654 298.472 473.465 297.661 474.494 297.661C475.523 297.661 476.333 298.472 476.333 299.5Z" fill="#08C2FA"/>
<path d="M474.634 513.838C474.634 514.847 473.823 515.678 472.795 515.678C471.766 515.678 470.955 514.867 470.955 513.838C470.955 512.81 471.766 511.999 472.795 511.999C473.823 511.999 474.634 512.81 474.634 513.838Z" fill="#08C2FA"/>
<path d="M438.14 550.471C438.14 551.48 437.329 552.311 436.3 552.311C435.272 552.311 434.461 551.5 434.461 550.471C434.461 549.443 435.272 548.632 436.3 548.632C437.329 548.632 438.14 549.443 438.14 550.471Z" fill="#08C2FA"/>
<path d="M276.554 379.927C276.554 380.935 275.743 381.766 274.715 381.766C273.686 381.766 272.875 380.955 272.875 379.927C272.875 378.898 273.686 378.087 274.715 378.087C275.743 378.087 276.554 378.898 276.554 379.927Z" fill="#08C2FA"/>
<path d="M395.474 173.678C395.474 174.687 394.663 175.518 393.635 175.518C392.606 175.518 391.795 174.707 391.795 173.678C391.795 172.65 392.606 171.839 393.635 171.839C394.663 171.839 395.474 172.65 395.474 173.678Z" fill="#08C2FA"/>
<path d="M511.208 339.872C512.967 339.872 514.393 338.446 514.393 336.687C514.393 334.928 512.967 333.502 511.208 333.502C509.449 333.502 508.023 334.928 508.023 336.687C508.023 338.446 509.449 339.872 511.208 339.872Z" fill="#A7EBFF"/>
<path d="M319.082 253.215C319.082 255.094 317.559 256.636 315.66 256.636C313.761 256.636 312.238 255.113 312.238 253.215C312.238 251.316 313.761 249.793 315.66 249.793C317.559 249.793 319.082 251.316 319.082 253.215Z" fill="#08C2FA"/>
<path d="M366.199 299.5C366.199 301.38 364.676 302.922 362.777 302.922C360.879 302.922 359.355 301.399 359.355 299.5C359.355 297.602 360.879 296.078 362.777 296.078C364.676 296.078 366.199 297.602 366.199 299.5Z" fill="#08C2FA"/>
<path d="M429.516 391.004C429.516 392.883 427.993 394.426 426.094 394.426C424.195 394.426 422.672 392.902 422.672 391.004C422.672 389.105 424.195 387.582 426.094 387.582C427.993 387.582 429.516 389.105 429.516 391.004Z" fill="#08C2FA"/>
<path d="M310.758 512.375C310.758 514.254 309.235 515.797 307.336 515.797C305.437 515.797 303.914 514.274 303.914 512.375C303.914 510.476 305.437 508.953 307.336 508.953C309.235 508.953 310.758 510.476 310.758 512.375Z" fill="#08C2FA"/>
<path d="M467.217 630.76C467.217 632.639 465.694 634.182 463.795 634.182C461.896 634.182 460.373 632.659 460.373 630.76C460.373 628.861 461.896 627.338 463.795 627.338C465.694 627.338 467.217 628.861 467.217 630.76Z" fill="#08C2FA"/>
<path d="M513.047 710.85C513.047 712.729 511.524 714.272 509.625 714.272C507.726 714.272 506.203 712.749 506.203 710.85C506.203 708.951 507.726 707.428 509.625 707.428C511.524 707.428 513.047 708.951 513.047 710.85Z" fill="#08C2FA"/>
<path d="M630.819 667.096C630.819 668.975 629.295 670.518 627.397 670.518C625.498 670.518 623.975 668.995 623.975 667.096C623.975 665.197 625.498 663.674 627.397 663.674C629.295 663.674 630.819 665.197 630.819 667.096Z" fill="#08C2FA"/>
<path d="M233.672 629.711C233.672 631.59 232.149 633.133 230.25 633.133C228.351 633.133 226.828 631.61 226.828 629.711C226.828 627.812 228.351 626.289 230.25 626.289C232.149 626.289 233.672 627.812 233.672 629.711Z" fill="#08C2FA"/>
<path d="M66.6272 633.133C66.6272 635.012 65.1042 636.555 63.2053 636.555C61.3064 636.555 59.7832 635.032 59.7832 633.133C59.7832 631.234 61.3064 629.711 63.2053 629.711C65.1042 629.711 66.6272 631.234 66.6272 633.133Z" fill="#08C2FA"/>
<path d="M511.84 450.522C511.84 452.401 510.317 453.944 508.418 453.944C506.519 453.944 504.996 452.421 504.996 450.522C504.996 448.623 506.519 447.1 508.418 447.1C510.317 447.1 511.84 448.623 511.84 450.522Z" fill="#08C2FA"/>
<path d="M372.608 550.472C372.608 552.351 371.085 553.894 369.186 553.894C367.287 553.894 365.764 552.371 365.764 550.472C365.764 548.573 367.287 547.05 369.186 547.05C371.085 547.05 372.608 548.573 372.608 550.472Z" fill="#08C2FA"/>
<path d="M611.355 649.828L560.342 700.841H360.127" stroke="#A7EBFF" stroke-width="0.23" stroke-miterlimit="10"/>
<path d="M258.12 654.041H184.063L137.52 607.498H6.6543" stroke="#A7EBFF" stroke-width="0.23" stroke-miterlimit="10"/>
<path d="M470.975 173.678L445.775 198.878H321.12L295.268 173.025" stroke="#A7EBFF" stroke-width="0.23" stroke-miterlimit="10"/>
<path d="M508.952 444.489H387.443L361.59 418.637" stroke="#A7EBFF" stroke-width="0.23" stroke-miterlimit="10"/>
<path d="M261.047 602.137C211.28 579.093 176.764 528.713 176.764 470.282C176.764 430.92 192.41 395.236 217.827 369.087" stroke="#A7EBFF" stroke-width="0.57" stroke-miterlimit="10"/>
<path d="M1109.34 416.243L1126.83 433.729H1301.41" stroke="#A7EBFF" stroke-width="0.23" stroke-miterlimit="10"/>
<defs>
<filter id="filter0_d_430_18979" x="660.819" y="318.679" width="153.352" height="153.352" filterUnits="userSpaceOnUse" color-interpolation-filters="sRGB">
<feFlood flood-opacity="0" result="BackgroundImageFix"/>
<feColorMatrix in="SourceAlpha" type="matrix" values="0 0 0 0 0 0 0 0 0 0 0 0 0 0 0 0 0 0 127 0" result="hardAlpha"/>
<feOffset/>
<feGaussianBlur stdDeviation="3.07"/>
<feColorMatrix type="matrix" values="0 0 0 0 0 0 0 0 0 0 0 0 0 0 0 0 0 0 0.2 0"/>
<feBlend mode="normal" in2="BackgroundImageFix" result="effect1_dropShadow_430_18979"/>
<feBlend mode="normal" in="SourceGraphic" in2="effect1_dropShadow_430_18979" result="shape"/>
</filter>
<filter id="filter1_d_430_18979" x="663.957" y="321.741" width="147.275" height="147.275" filterUnits="userSpaceOnUse" color-interpolation-filters="sRGB">
<feFlood flood-opacity="0" result="BackgroundImageFix"/>
<feColorMatrix in="SourceAlpha" type="matrix" values="0 0 0 0 0 0 0 0 0 0 0 0 0 0 0 0 0 0 127 0" result="hardAlpha"/>
<feOffset/>
<feGaussianBlur stdDeviation="2.95"/>
<feColorMatrix type="matrix" values="0 0 0 0 0 0 0 0 0 0 0 0 0 0 0 0 0 0 0.3 0"/>
<feBlend mode="normal" in2="BackgroundImageFix" result="effect1_dropShadow_430_18979"/>
<feBlend mode="normal" in="SourceGraphic" in2="effect1_dropShadow_430_18979" result="shape"/>
</filter>
</defs>
</svg>
