<svg width="20" height="20" viewBox="0 0 20 20" fill="none" xmlns="http://www.w3.org/2000/svg">
<g clip-path="url(#clip0_2001_477)">
<path d="M8.47363 1.87073C9.20247 1.56883 10.0046 1.4893 10.7783 1.64319C11.552 1.79708 12.2625 2.17725 12.8203 2.73499C13.3781 3.29275 13.7581 4.00336 13.9121 4.77698C14.066 5.55064 13.9874 6.35287 13.6855 7.08167C13.3837 7.81034 12.8725 8.43342 12.2168 8.8717C11.5608 9.31001 10.7889 9.54456 10 9.54456C8.94216 9.5445 7.9277 9.12362 7.17969 8.37561C6.43176 7.62757 6.01172 6.61311 6.01172 5.5553C6.01176 4.76646 6.24535 3.99538 6.68359 3.33948C7.12185 2.68358 7.74487 2.17265 8.47363 1.87073ZM10 2.87756C9.28989 2.87762 8.60857 3.15961 8.10645 3.66174C7.60432 4.16387 7.32232 4.84519 7.32227 5.5553C7.32227 6.08491 7.4792 6.60322 7.77344 7.04358C8.06767 7.48388 8.48633 7.82725 8.97559 8.02991C9.46474 8.23246 10.0032 8.28549 10.5225 8.18225C11.0419 8.07893 11.5191 7.82335 11.8936 7.44885C12.268 7.07436 12.5236 6.5972 12.627 6.07776C12.7302 5.55848 12.6772 5.02004 12.4746 4.53088C12.272 4.04163 11.9286 3.62297 11.4883 3.32874C11.0479 3.0345 10.5296 2.87756 10 2.87756Z" fill="#1B1C1C" stroke="#1B1C1C" stroke-width="0.2"/>
<path d="M10.002 10.458C11.3119 10.458 12.6083 10.7252 13.8115 11.2432C14.8643 11.6964 15.8271 12.3325 16.6543 13.1221L17 13.4697L17.001 13.4707C17.2091 13.6963 17.3241 13.9929 17.3223 14.2998V17.2227C17.3222 17.5437 17.1938 17.8521 16.9668 18.0791C16.7397 18.306 16.4314 18.4336 16.1104 18.4336H3.88867C3.56761 18.4336 3.25933 18.306 3.03223 18.0791C2.80519 17.8521 2.67784 17.5437 2.67773 17.2227V14.2998C2.67736 13.992 2.79362 13.6955 3.00391 13.4707L3.00488 13.4697C3.9051 12.5184 4.99033 11.7611 6.19336 11.2432C7.39638 10.7253 8.69219 10.4581 10.002 10.458ZM10 11.7705C8.87023 11.7705 7.75198 12.0005 6.71387 12.4463C5.68759 12.887 4.76098 13.5298 3.98828 14.3359V17.1221H16.0107V14.3359C15.2381 13.5299 14.3114 12.887 13.2852 12.4463C12.2472 12.0006 11.1296 11.7706 10 11.7705Z" fill="#1B1C1C" stroke="#1B1C1C" stroke-width="0.2"/>
</g>
<defs>
<clipPath id="clip0_2001_477">
<rect width="20" height="20" fill="white"/>
</clipPath>
</defs>
</svg>
