<svg width="26" height="26" viewBox="0 0 26 26" fill="none" xmlns="http://www.w3.org/2000/svg">
<g clip-path="url(#clip0_331_1987)">
<path d="M13 0C9.55297 0 6.24406 1.37048 3.80859 3.80758C1.37063 6.24565 0.00069763 9.55212 0 13C0 16.4464 1.37109 19.7553 3.80859 22.1924C6.24406 24.6295 9.55297 26 13 26C16.447 26 19.7559 24.6295 22.1914 22.1924C24.6289 19.7553 26 16.4464 26 13C26 9.55358 24.6289 6.24467 22.1914 3.80758C19.7559 1.37048 16.447 0 13 0Z" fill="url(#paint0_linear_331_1987)"/>
<path d="M5.09976 12.0784C9.39553 10.2073 12.2594 8.97363 13.6913 8.37753C17.7845 6.67557 18.634 6.37997 19.1888 6.36996C19.3108 6.368 19.5825 6.39816 19.7597 6.54147C19.9071 6.66233 19.9485 6.82578 19.9692 6.94054C19.9876 7.05519 20.013 7.31648 19.9922 7.52045C19.7712 9.85021 18.8112 15.5038 18.3232 18.1132C18.1183 19.2173 17.7108 19.5875 17.3172 19.6237C16.4608 19.7024 15.8116 19.0583 14.9828 18.5152C13.6867 17.665 12.9546 17.136 11.6954 16.3065C10.2404 15.3479 11.1843 14.821 12.0131 13.96C12.2295 13.7346 16.0003 10.3056 16.0717 9.99455C16.0809 9.95564 16.0901 9.81061 16.0026 9.73418C15.9175 9.65752 15.7909 9.68376 15.6988 9.70448C15.5675 9.73395 13.4979 11.1033 9.48301 13.8122C8.89597 14.216 8.36418 14.4128 7.88533 14.4024C7.36045 14.3912 6.34751 14.105 5.59472 13.8605C4.67386 13.5606 3.93948 13.4019 4.00394 12.8925C4.03617 12.6273 4.40221 12.3558 5.09976 12.0784Z" fill="white"/>
</g>
<defs>
<linearGradient id="paint0_linear_331_1987" x1="1300" y1="0" x2="1300" y2="2600" gradientUnits="userSpaceOnUse">
<stop stop-color="#2AABEE"/>
<stop offset="1" stop-color="#229ED9"/>
</linearGradient>
<clipPath id="clip0_331_1987">
<rect width="26" height="26" fill="white"/>
</clipPath>
</defs>
</svg>
